<?plantuml 1.2026.2?><svg xmlns="http://www.w3.org/2000/svg" xmlns:xlink="http://www.w3.org/1999/xlink" contentStyleType="text/css" data-diagram-type="CLASS" height="817px" preserveAspectRatio="none" style="width:651px;height:817px;background:#FFFFFF;" version="1.1" viewBox="0 0 651 817" width="651px" zoomAndPan="magnify"><defs/><g><!--class aircraft--><g class="entity" data-qualified-name="aircraft" data-source-line="6" id="ent0002"><rect fill="#FFFFFF" height="140.4075" rx="2.5" ry="2.5" style="stroke:#000000;stroke-width:1;" width="229.5452" x="18" y="451"/><ellipse cx="105.2857" cy="465.534" fill="#FFFFFF" rx="9" ry="9" style="stroke:#000000;stroke-width:1;"/><path d="M108.6919,467.5027 C107.9732,468.1746 106.6763,469.3465 104.9263,469.3465 C102.7075,469.3465 101.7388,467.409 101.7388,465.4558 C101.7388,463.0652 103.2232,461.7996 104.8638,461.7996 C106.8794,461.7996 107.0982,463.3152 107.27,464.409 L108.6919,464.2215 C108.5982,463.6433 108.52,463.0652 108.52,462.0965 C108.52,461.4246 108.5669,460.8777 108.5982,460.4558 L107.1919,460.4558 L107.0825,461.409 C106.4888,460.8777 105.8482,460.3308 104.6294,460.3308 C102.5825,460.3308 100.1763,462.159 100.1763,465.4715 C100.1763,468.409 101.9419,470.7996 104.9419,470.7996 C107.3794,470.7996 109.0825,469.1746 109.6763,468.5965 L108.6919,467.5027 Z " fill="#000000"/><text fill="#000000" font-family="Verdana" font-size="14" lengthAdjust="spacing" textLength="47.4738" x="122.7857" y="470.9659">aircraft</text><line style="stroke:#000000;stroke-width:1;" x1="19" x2="246.5452" y1="480.0679" y2="480.0679"/><text fill="#000000" font-family="Verdana" font-size="14" lengthAdjust="spacing" textLength="150.7234" x="24" y="499.0339">aircraft_model_id: uuid</text><text fill="#000000" font-family="Verdana" font-size="14" lengthAdjust="spacing" textLength="107.4636" x="24" y="518.1018">mileage: integer</text><text fill="#000000" font-family="Verdana" font-size="14" lengthAdjust="spacing" textLength="49.1398" x="24" y="537.1697">id: uuid</text><line style="stroke:#000000;stroke-width:1;" x1="19" x2="246.5452" y1="545.2717" y2="545.2717"/><text fill="#000000" font-family="Verdana" font-size="14" lengthAdjust="spacing" textLength="217.5452" x="24" y="564.2376">registration_number: varchar(10)</text><text fill="#000000" font-family="Verdana" font-size="14" lengthAdjust="spacing" textLength="175.9233" x="24" y="583.3055">serial_number: varchar(10)</text></g><!--class aircraft_models--><g class="entity" data-qualified-name="aircraft_models" data-source-line="13" id="ent0003"><rect fill="#FFFFFF" height="159.4754" rx="2.5" ry="2.5" style="stroke:#000000;stroke-width:1;" width="184.3673" x="41" y="651"/><ellipse cx="78.4322" cy="665.534" fill="#FFFFFF" rx="9" ry="9" style="stroke:#000000;stroke-width:1;"/><path d="M81.8384,667.5027 C81.1197,668.1746 79.8228,669.3465 78.0728,669.3465 C75.854,669.3465 74.8853,667.409 74.8853,665.4558 C74.8853,663.0652 76.3697,661.7996 78.0103,661.7996 C80.0259,661.7996 80.2447,663.3152 80.4165,664.409 L81.8384,664.2215 C81.7447,663.6433 81.6665,663.0652 81.6665,662.0965 C81.6665,661.4246 81.7134,660.8777 81.7447,660.4558 L80.3384,660.4558 L80.229,661.409 C79.6353,660.8777 78.9947,660.3308 77.7759,660.3308 C75.729,660.3308 73.3228,662.159 73.3228,665.4715 C73.3228,668.409 75.0884,670.7996 78.0884,670.7996 C80.5259,670.7996 82.229,669.1746 82.8228,668.5965 L81.8384,667.5027 Z " fill="#000000"/><text fill="#000000" font-family="Verdana" font-size="14" lengthAdjust="spacing" textLength="102.0736" x="95.8615" y="670.9659">aircraft_models</text><line style="stroke:#000000;stroke-width:1;" x1="42" x2="224.3673" y1="680.0679" y2="680.0679"/><text fill="#000000" font-family="Verdana" font-size="14" lengthAdjust="spacing" textLength="89.2497" x="47" y="699.0339">mass: integer</text><text fill="#000000" font-family="Verdana" font-size="14" lengthAdjust="spacing" textLength="139.8035" x="47" y="718.1018">max_altitude: integer</text><text fill="#000000" font-family="Verdana" font-size="14" lengthAdjust="spacing" textLength="129.1775" x="47" y="737.1697">max_speed: integer</text><text fill="#000000" font-family="Verdana" font-size="14" lengthAdjust="spacing" textLength="49.1398" x="47" y="756.2376">id: uuid</text><line style="stroke:#000000;stroke-width:1;" x1="42" x2="224.3673" y1="764.3396" y2="764.3396"/><text fill="#000000" font-family="Verdana" font-size="14" lengthAdjust="spacing" textLength="172.3673" x="47" y="783.3055">manufacturer: varchar(50)</text><text fill="#000000" font-family="Verdana" font-size="14" lengthAdjust="spacing" textLength="123.2415" x="47" y="802.3734">model: varchar(50)</text></g><!--class airports--><g class="entity" data-qualified-name="airports" data-source-line="21" id="ent0004"><rect fill="#FFFFFF" height="140.4075" rx="2.5" ry="2.5" style="stroke:#000000;stroke-width:1;" width="155.8494" x="283" y="451"/><ellipse cx="331.2398" cy="465.534" fill="#FFFFFF" rx="9" ry="9" style="stroke:#000000;stroke-width:1;"/><path d="M334.6461,467.5027 C333.9273,468.1746 332.6304,469.3465 330.8804,469.3465 C328.6617,469.3465 327.6929,467.409 327.6929,465.4558 C327.6929,463.0652 329.1773,461.7996 330.8179,461.7996 C332.8336,461.7996 333.0523,463.3152 333.2242,464.409 L334.6461,464.2215 C334.5523,463.6433 334.4742,463.0652 334.4742,462.0965 C334.4742,461.4246 334.5211,460.8777 334.5523,460.4558 L333.1461,460.4558 L333.0367,461.409 C332.4429,460.8777 331.8023,460.3308 330.5836,460.3308 C328.5367,460.3308 326.1304,462.159 326.1304,465.4715 C326.1304,468.409 327.8961,470.7996 330.8961,470.7996 C333.3336,470.7996 335.0367,469.1746 335.6304,468.5965 L334.6461,467.5027 Z " fill="#000000"/><text fill="#000000" font-family="Verdana" font-size="14" lengthAdjust="spacing" textLength="51.8698" x="348.7398" y="470.9659">airports</text><line style="stroke:#000000;stroke-width:1;" x1="284" x2="437.8494" y1="480.0679" y2="480.0679"/><text fill="#000000" font-family="Verdana" font-size="14" lengthAdjust="spacing" textLength="49.1398" x="289" y="499.0339">id: uuid</text><line style="stroke:#000000;stroke-width:1;" x1="284" x2="437.8494" y1="507.1358" y2="507.1358"/><text fill="#000000" font-family="Verdana" font-size="14" lengthAdjust="spacing" textLength="143.8494" x="289" y="526.1018">iata_code: varchar(10)</text><text fill="#000000" font-family="Verdana" font-size="14" lengthAdjust="spacing" textLength="114.7995" x="289" y="545.1697">title: varchar(128)</text><text fill="#000000" font-family="Verdana" font-size="14" lengthAdjust="spacing" textLength="112.0975" x="289" y="564.2376">city: varchar(128)</text><text fill="#000000" font-family="Verdana" font-size="14" lengthAdjust="spacing" textLength="140.0414" x="289" y="583.3055">country: varchar(128)</text></g><!--class flights--><g class="entity" data-qualified-name="flights" data-source-line="28" id="ent0005"><rect fill="#FFFFFF" height="197.6113" rx="2.5" ry="2.5" style="stroke:#000000;stroke-width:1;" width="230.0632" x="18" y="193"/><ellipse cx="108.7507" cy="207.534" fill="#FFFFFF" rx="9" ry="9" style="stroke:#000000;stroke-width:1;"/><path d="M112.1569,209.5027 C111.4382,210.1746 110.1413,211.3465 108.3913,211.3465 C106.1725,211.3465 105.2038,209.409 105.2038,207.4558 C105.2038,205.0652 106.6882,203.7996 108.3288,203.7996 C110.3444,203.7996 110.5632,205.3152 110.735,206.409 L112.1569,206.2215 C112.0632,205.6433 111.985,205.0652 111.985,204.0965 C111.985,203.4246 112.0319,202.8777 112.0632,202.4558 L110.6569,202.4558 L110.5475,203.409 C109.9538,202.8777 109.3132,202.3308 108.0944,202.3308 C106.0475,202.3308 103.6413,204.159 103.6413,207.4715 C103.6413,210.409 105.4069,212.7996 108.4069,212.7996 C110.8444,212.7996 112.5475,211.1746 113.1413,210.5965 L112.1569,209.5027 Z " fill="#000000"/><text fill="#000000" font-family="Verdana" font-size="14" lengthAdjust="spacing" textLength="41.0618" x="126.2507" y="212.9659">flights</text><line style="stroke:#000000;stroke-width:1;" x1="19" x2="247.0632" y1="222.0679" y2="222.0679"/><text fill="#000000" font-family="Verdana" font-size="14" lengthAdjust="spacing" textLength="102.8296" x="24" y="241.0339">aircraft_id: uuid</text><text fill="#000000" font-family="Verdana" font-size="14" lengthAdjust="spacing" textLength="218.0632" x="24" y="260.1018">scheduled_departure: timestamp</text><text fill="#000000" font-family="Verdana" font-size="14" lengthAdjust="spacing" textLength="193.5353" x="24" y="279.1697">scheduled_arrival: timestamp</text><text fill="#000000" font-family="Verdana" font-size="14" lengthAdjust="spacing" textLength="190.4553" x="24" y="298.2376">actual_departure: timestamp</text><text fill="#000000" font-family="Verdana" font-size="14" lengthAdjust="spacing" textLength="165.9274" x="24" y="317.3055">actual_arrival: timestamp</text><text fill="#000000" font-family="Verdana" font-size="14" lengthAdjust="spacing" textLength="49.1398" x="24" y="336.3734">id: uuid</text><line style="stroke:#000000;stroke-width:1;" x1="19" x2="247.0632" y1="344.4754" y2="344.4754"/><text fill="#000000" font-family="Verdana" font-size="14" lengthAdjust="spacing" textLength="121.5895" x="24" y="363.4414">status: varchar(20)</text><text fill="#000000" font-family="Verdana" font-size="14" lengthAdjust="spacing" textLength="118.2995" x="24" y="382.5093">plan: varchar(128)</text></g><!--class gates--><g class="entity" data-qualified-name="gates" data-source-line="38" id="ent0006"><rect fill="#FFFFFF" height="102.2717" rx="2.5" ry="2.5" style="stroke:#000000;stroke-width:1;" width="154.2534" x="283" y="241"/><ellipse cx="338.3168" cy="255.534" fill="#FFFFFF" rx="9" ry="9" style="stroke:#000000;stroke-width:1;"/><path d="M341.723,257.5027 C341.0043,258.1746 339.7074,259.3465 337.9574,259.3465 C335.7387,259.3465 334.7699,257.409 334.7699,255.4558 C334.7699,253.0652 336.2543,251.7996 337.8949,251.7996 C339.9105,251.7996 340.1293,253.3152 340.3012,254.409 L341.723,254.2215 C341.6293,253.6433 341.5512,253.0652 341.5512,252.0965 C341.5512,251.4246 341.598,250.8777 341.6293,250.4558 L340.223,250.4558 L340.1137,251.409 C339.5199,250.8777 338.8793,250.3308 337.6605,250.3308 C335.6137,250.3308 333.2074,252.159 333.2074,255.4715 C333.2074,258.409 334.973,260.7996 337.973,260.7996 C340.4105,260.7996 342.1137,259.1746 342.7074,258.5965 L341.723,257.5027 Z " fill="#000000"/><text fill="#000000" font-family="Verdana" font-size="14" lengthAdjust="spacing" textLength="36.1199" x="355.8168" y="260.9659">gates</text><line style="stroke:#000000;stroke-width:1;" x1="284" x2="436.2534" y1="270.0679" y2="270.0679"/><text fill="#000000" font-family="Verdana" font-size="14" lengthAdjust="spacing" textLength="100.5196" x="289" y="289.0339">airport_id: uuid</text><text fill="#000000" font-family="Verdana" font-size="14" lengthAdjust="spacing" textLength="49.1398" x="289" y="308.1018">id: uuid</text><line style="stroke:#000000;stroke-width:1;" x1="284" x2="436.2534" y1="316.2038" y2="316.2038"/><text fill="#000000" font-family="Verdana" font-size="14" lengthAdjust="spacing" textLength="142.2534" x="289" y="335.1697">number: varchar(128)</text></g><!--class users--><g class="entity" data-qualified-name="users" data-source-line="43" id="ent0007"><rect fill="#FFFFFF" height="121.3396" rx="2.5" ry="2.5" style="stroke:#000000;stroke-width:1;" width="165.3134" x="479.5" y="12"/><ellipse cx="540.5358" cy="26.534" fill="#FFFFFF" rx="9" ry="9" style="stroke:#000000;stroke-width:1;"/><path d="M543.942,28.5027 C543.2233,29.1746 541.9264,30.3465 540.1764,30.3465 C537.9576,30.3465 536.9889,28.409 536.9889,26.4558 C536.9889,24.0652 538.4733,22.7996 540.1139,22.7996 C542.1295,22.7996 542.3483,24.3152 542.5201,25.409 L543.942,25.2215 C543.8483,24.6433 543.7701,24.0652 543.7701,23.0965 C543.7701,22.4246 543.817,21.8777 543.8483,21.4558 L542.442,21.4558 L542.3326,22.409 C541.7389,21.8777 541.0983,21.3308 539.8795,21.3308 C537.8326,21.3308 535.4264,23.159 535.4264,26.4715 C535.4264,29.409 537.192,31.7996 540.192,31.7996 C542.6295,31.7996 544.3326,30.1746 544.9264,29.5965 L543.942,28.5027 Z " fill="#000000"/><text fill="#000000" font-family="Verdana" font-size="14" lengthAdjust="spacing" textLength="35.7419" x="558.0358" y="31.9659">users</text><line style="stroke:#000000;stroke-width:1;" x1="480.5" x2="643.8134" y1="41.0679" y2="41.0679"/><text fill="#000000" font-family="Verdana" font-size="14" lengthAdjust="spacing" textLength="49.1398" x="485.5" y="60.0339">id: uuid</text><line style="stroke:#000000;stroke-width:1;" x1="480.5" x2="643.8134" y1="68.1358" y2="68.1358"/><text fill="#000000" font-family="Verdana" font-size="14" lengthAdjust="spacing" textLength="125.6355" x="485.5" y="87.1018">email: varchar(256)</text><text fill="#000000" font-family="Verdana" font-size="14" lengthAdjust="spacing" textLength="153.3134" x="485.5" y="106.1697">password: varchar(128)</text><text fill="#000000" font-family="Verdana" font-size="14" lengthAdjust="spacing" textLength="107.3236" x="485.5" y="125.2376">role: varchar(20)</text></g><!--class visits--><g class="entity" data-qualified-name="visits" data-source-line="49" id="ent0008"><rect fill="#FFFFFF" height="121.3396" rx="2.5" ry="2.5" style="stroke:#000000;stroke-width:1;" width="169.1214" x="275.5" y="12"/><ellipse cx="339.9098" cy="26.534" fill="#FFFFFF" rx="9" ry="9" style="stroke:#000000;stroke-width:1;"/><path d="M343.316,28.5027 C342.5973,29.1746 341.3004,30.3465 339.5504,30.3465 C337.3316,30.3465 336.3629,28.409 336.3629,26.4558 C336.3629,24.0652 337.8473,22.7996 339.4879,22.7996 C341.5035,22.7996 341.7223,24.3152 341.8941,25.409 L343.316,25.2215 C343.2223,24.6433 343.1441,24.0652 343.1441,23.0965 C343.1441,22.4246 343.191,21.8777 343.2223,21.4558 L341.816,21.4558 L341.7066,22.409 C341.1129,21.8777 340.4723,21.3308 339.2535,21.3308 C337.2066,21.3308 334.8004,23.159 334.8004,26.4715 C334.8004,29.409 336.566,31.7996 339.566,31.7996 C342.0035,31.7996 343.7066,30.1746 344.3004,29.5965 L343.316,28.5027 Z " fill="#000000"/><text fill="#000000" font-family="Verdana" font-size="14" lengthAdjust="spacing" textLength="32.8019" x="357.4098" y="31.9659">visits</text><line style="stroke:#000000;stroke-width:1;" x1="276.5" x2="443.6214" y1="41.0679" y2="41.0679"/><text fill="#000000" font-family="Verdana" font-size="14" lengthAdjust="spacing" textLength="89.7116" x="281.5" y="60.0339">flight_id: uuid</text><text fill="#000000" font-family="Verdana" font-size="14" lengthAdjust="spacing" textLength="157.1214" x="281.5" y="79.1018">departure_gate_id: uuid</text><text fill="#000000" font-family="Verdana" font-size="14" lengthAdjust="spacing" textLength="132.5935" x="281.5" y="98.1697">arrival_gate_id: uuid</text><text fill="#000000" font-family="Verdana" font-size="14" lengthAdjust="spacing" textLength="49.1398" x="281.5" y="117.2376">id: uuid</text><line style="stroke:#000000;stroke-width:1;" x1="276.5" x2="443.6214" y1="125.3396" y2="125.3396"/></g><!--link aircraft to aircraft_models--><g class="link" data-entity-1="ent0002" data-entity-2="ent0003" data-link-type="extension" data-source-line="56" id="lnk9"><path codeLine="56" d="M133,591.05 C133,610.2 133,613.1 133,632.75" fill="none" id="aircraft-to-aircraft_models" style="stroke:#595959;stroke-width:1;"/><polygon fill="none" points="133,650.75,139,632.75,127,632.75,133,650.75" style="stroke:#595959;stroke-width:1;"/><text fill="#000000" font-family="Verdana" font-size="13" lengthAdjust="spacing" textLength="120.5101" x="12" y="616.797">aircraft_model_id:id</text></g><!--link flights to aircraft--><g class="link" data-entity-1="ent0005" data-entity-2="ent0002" data-link-type="extension" data-source-line="57" id="lnk10"><path codeLine="57" d="M133,391.11 C133,411.18 133,413.88 133,432.71" fill="none" id="flights-to-aircraft" style="stroke:#595959;stroke-width:1;"/><polygon fill="none" points="133,450.71,139,432.71,127,432.71,133,450.71" style="stroke:#595959;stroke-width:1;"/><text fill="#000000" font-family="Verdana" font-size="13" lengthAdjust="spacing" textLength="76.0371" x="56" y="416.807">aircraft_id:id</text></g><!--link gates to airports--><g class="link" data-entity-1="ent0006" data-entity-2="ent0004" data-link-type="extension" data-source-line="58" id="lnk11"><path codeLine="58" d="M360,343.11 C360,374.88 360,398.15 360,432.95" fill="none" id="gates-to-airports" style="stroke:#595959;stroke-width:1;"/><polygon fill="none" points="360,450.95,366,432.95,354,432.95,360,450.95" style="stroke:#595959;stroke-width:1;"/><text fill="#000000" font-family="Verdana" font-size="13" lengthAdjust="spacing" textLength="73.8921" x="286" y="392.927">airport_id:id</text></g><!--link visits to flights--><g class="link" data-entity-1="ent0008" data-entity-2="ent0005" data-link-type="extension" data-source-line="59" id="lnk12"><path codeLine="59" d="M279.25,133.36 C279.25,172.85 279.25,217 279.25,217 C279.25,217 284.36,217 266.23,217" fill="none" id="visits-to-flights" style="stroke:#595959;stroke-width:1;"/><polygon fill="none" points="248.23,217,266.23,223,266.23,211,248.23,217" style="stroke:#595959;stroke-width:1;"/><text fill="#000000" font-family="Verdana" font-size="13" lengthAdjust="spacing" textLength="63.8561" x="215.25" y="186.587">flight_id:id</text></g><!--link visits to gates--><g class="link" data-entity-1="ent0008" data-entity-2="ent0006" data-link-type="extension" data-source-line="60" id="lnk13"><path codeLine="60" d="M334.33,133.06 C334.33,166.94 334.33,190.71 334.33,222.92" fill="none" id="visits-to-gates" style="stroke:#595959;stroke-width:1;"/><polygon fill="none" points="334.33,240.92,340.33,222.92,328.33,222.92,334.33,240.92" style="stroke:#595959;stroke-width:1;"/><text fill="#000000" font-family="Verdana" font-size="13" lengthAdjust="spacing" textLength="126.4511" x="335.33" y="182.887">departure_gate_id:id</text></g><!--link visits to gates--><g class="link" data-entity-1="ent0008" data-entity-2="ent0006" data-link-type="extension" data-source-line="61" id="lnk14"><path codeLine="61" d="M385.67,133.06 C385.67,166.94 385.67,190.71 385.67,222.92" fill="none" id="visits-to-gates-1" style="stroke:#595959;stroke-width:1;"/><polygon fill="none" points="385.67,240.92,391.67,222.92,379.67,222.92,385.67,240.92" style="stroke:#595959;stroke-width:1;"/><text fill="#000000" font-family="Verdana" font-size="13" lengthAdjust="spacing" textLength="103.6751" x="281.67" y="201.887">arrival_gate_id:id</text></g><?plantuml-src fLFRRjim37ttLsZjImUim1eWm-PV6LQ3jHYRc6GP59Mk6FRlbUfBR2jP0zHvSKZwyF0SyfEqQ57r1gWhnFLAd7fo8iugJOoraEiA_vkw7XYiCjIXlFIe74lhYg8suBq2ufhX8EfleTJyhx9Eewb8boe4qYd5s90NXeHQTS4-8PVg25otm7SFNp-d6ezCO2vbBHc41aj5dM23d69pXtyRFWC3Fz2oq8K3r19u2RiVOLDX7erWgquM_bHWX2Hep1A-HzJl4kkZSYCZ0e6gTWbgCsNiO9RHtVUtS4toSYRgGYTy9f6rFnXgsgdxBDBI85-tg8D1NMcCZYUnoiZ6eXUm_Re2cEa8PfDF2aVxBdq-fiz_6rya-DCWkq6Dk9pT5TCr87YQBUcy6YrRg4iu8MxWY8CMQB4Mk_stWL0iUtQiSp1sIzz6_bc78tcQR1WyMJ6TjQlIIAlKg5kUMFGevdESdlkVj_iVwVVbxSv_tJ-gx4PATPCVBkcRObgQgz2ccYNQY3FOezx56GvaXJDvcM16xVuFi-KSOKuwNusoPHnHSci-WhPrCsAz0W00?></g></svg>