<svg xmlns="http://www.w3.org/2000/svg" xmlns:xlink="http://www.w3.org/1999/xlink" version="1.1" style="background: #ffffff" viewBox="148.99999221952837 109.0000048722371 4550.000161274825 2549.999922006437"><style id="v-3" type="text/css">        .joint-element .scalable * {            vector-effect: non-scaling-stroke;        }    </style><defs joint-selector="defs"><marker id="v-2633353823" orient="auto" overflow="visible" markerUnits="userSpaceOnUse"><path id="v-68" stroke="#444444" fill="#444444" transform="rotate(180)" d="M 40 -20 0 0 40 20 Z"></path></marker></defs><g joint-selector="layers"  transform="matrix(1,0,0,1,0,0)"><g  style="pointer-events: none;"></g><g ></g><g  style="user-select: none;"><!--z-index:1--><!--z-index:2--><!--z-index:3--><!--z-index:4--><!--z-index:5--><!--z-index:6--><!--z-index:7--><!--z-index:8--><!--z-index:9--><!--z-index:10--><!--z-index:11--><!--z-index:12--><!--z-index:13--><!--z-index:14--><!--z-index:15--><!--z-index:16--><!--z-index:17--><!--z-index:18--><!--z-index:19--><!--z-index:20--><!--z-index:21--><!--z-index:22--><!--z-index:23--><!--z-index:24--><g   id="j_14"  transform="translate(20,2806)"><g id="v-122"><text  id="v-123" font-size="24px" xml:space="preserve" y="0.8em" font-weight="normal" text-anchor="start" fill="#444444" pointer-events="none" display="block" font-family="Tahoma, Verdana, Helvetica, Arial"><tspan dy="0"  display="none">Thursday, September 17, 2026 at 3:49 PM Moscow Standard Time</tspan></text></g></g><!--z-index:25--><g   id="j_13"  transform="translate(20,2760)"><g id="v-120"><text  id="v-121" font-size="36px" xml:space="preserve" y="0.8em" font-weight="normal" text-anchor="start" fill="#444444" pointer-events="none" display="block" font-family="Tahoma, Verdana, Helvetica, Arial"><tspan dy="0"  display="none">Container View: Airline tracker</tspan></text></g></g><!--z-index:26--><g   id="j_15"  transform="translate(1829,159)" style=""><g  id="v-124" style="opacity: 1;"><rect  x="0" y="160" width="400" height="240" rx="70" id="v-126" stroke-width="7" pointer-events="visiblePainted" fill="#ffffff" stroke="#9a28f8" stroke-dasharray="" style="fill: rgb(255, 255, 255); stroke: rgb(154, 40, 248);"></rect><circle  cx="200" cy="88.88888888888889" r="88.88888888888889" id="v-125" stroke-width="7" pointer-events="visiblePainted" fill="#ffffff" stroke="#9a28f8" stroke-dasharray="" style="fill: rgb(255, 255, 255); stroke: rgb(154, 40, 248);"></circle><line  x1="80" y1="266.6666666666667" x2="80" y2="400" id="v-132" stroke="#9a28f8" stroke-width="1" stroke-dasharray="" style="stroke: rgb(154, 40, 248);"></line><line  x1="320" y1="266.6666666666667" x2="320" y2="400" id="v-133" stroke="#9a28f8" stroke-width="1" stroke-dasharray="" style="stroke: rgb(154, 40, 248);"></line><text  id="v-127" font-size="33.599999999999994px" xml:space="preserve" y="250.8" font-weight="bold" text-anchor="middle" pointer-events="visible" font-family="Tahoma, Verdana, Helvetica, Arial" fill="#9a28f8" dominant-baseline="hanging" transform="matrix(1,0,0,1,200,0)" style="fill: rgb(154, 40, 248);"><tspan dy="0" >Пользователь</tspan></text><text  id="v-128" font-size="16.799999999999997px" xml:space="preserve" y="292.4" text-anchor="middle" font-family="Tahoma, Verdana, Helvetica, Arial" fill="#9a28f8" dominant-baseline="hanging" transform="matrix(1,0,0,1,200,0)" style="display: block; fill: rgb(154, 40, 248);"><tspan dy="0" >[Person]</tspan></text><text  id="v-129" font-size="24px" xml:space="preserve" display="none" y="250.8" text-anchor="middle" font-family="Tahoma, Verdana, Helvetica, Arial" fill="#9a28f8" dominant-baseline="hanging" transform="matrix(1,0,0,1,200,0)" style="display: block; fill: rgb(154, 40, 248);"><tspan dy="0" style="fill-opacity: 0; stroke-opacity: 0;" >-</tspan></text><g  id="v-130" font-weight="normal" text-anchor="middle" color="#9a28f8" transform="matrix(1,0,0,1,197.5,368)" style="fill: rgb(154, 40, 248);" display="none"><g ></g><g ></g><g ></g><g ></g></g><image  id="v-131"></image></g></g><!--z-index:27--><g   id="j_16"  transform="translate(1829,609)" style=""><g  id="v-137" style="opacity: 1;"><rect  x="0" y="160" width="400" height="240" rx="70" id="v-139" stroke-width="7" pointer-events="visiblePainted" fill="#ffffff" stroke="#9a28f8" stroke-dasharray="" style="fill: rgb(255, 255, 255); stroke: rgb(154, 40, 248);"></rect><circle  cx="200" cy="88.88888888888889" r="88.88888888888889" id="v-138" stroke-width="7" pointer-events="visiblePainted" fill="#ffffff" stroke="#9a28f8" stroke-dasharray="" style="fill: rgb(255, 255, 255); stroke: rgb(154, 40, 248);"></circle><line  x1="80" y1="266.6666666666667" x2="80" y2="400" id="v-145" stroke="#9a28f8" stroke-width="1" stroke-dasharray="" style="stroke: rgb(154, 40, 248);"></line><line  x1="320" y1="266.6666666666667" x2="320" y2="400" id="v-146" stroke="#9a28f8" stroke-width="1" stroke-dasharray="" style="stroke: rgb(154, 40, 248);"></line><text  id="v-140" font-size="33.599999999999994px" xml:space="preserve" y="230.64000000000001" font-weight="bold" text-anchor="middle" pointer-events="visible" font-family="Tahoma, Verdana, Helvetica, Arial" fill="#9a28f8" dominant-baseline="hanging" transform="matrix(1,0,0,1,200,0)" style="fill: rgb(154, 40, 248);"><tspan dy="0" >Авторизованный</tspan><tspan dy="1.2em" x="0" >пользователь</tspan></text><text  id="v-141" font-size="16.799999999999997px" xml:space="preserve" y="312.56" text-anchor="middle" font-family="Tahoma, Verdana, Helvetica, Arial" fill="#9a28f8" dominant-baseline="hanging" transform="matrix(1,0,0,1,200,0)" style="display: block; fill: rgb(154, 40, 248);"><tspan dy="0" >[Person]</tspan></text><text  id="v-142" font-size="24px" xml:space="preserve" display="none" y="230.64000000000001" text-anchor="middle" font-family="Tahoma, Verdana, Helvetica, Arial" fill="#9a28f8" dominant-baseline="hanging" transform="matrix(1,0,0,1,200,0)" style="display: block; fill: rgb(154, 40, 248);"><tspan dy="0" style="fill-opacity: 0; stroke-opacity: 0;" >-</tspan></text><g  id="v-143" font-weight="normal" text-anchor="middle" color="#9a28f8" transform="matrix(1,0,0,1,197.5,368)" style="fill: rgb(154, 40, 248);" display="none"><g ></g><g ></g><g ></g><g ></g></g><image  id="v-144"></image></g></g><!--z-index:28--><g   id="j_17"  transform="translate(1829,2209)" style=""><g  id="v-147" style="opacity: 1;"><rect  x="0" y="160" width="400" height="240" rx="70" id="v-149" stroke-width="7" pointer-events="visiblePainted" fill="#ffffff" stroke="#9a28f8" stroke-dasharray="" style="fill: rgb(255, 255, 255); stroke: rgb(154, 40, 248);"></rect><circle  cx="200" cy="88.88888888888889" r="88.88888888888889" id="v-148" stroke-width="7" pointer-events="visiblePainted" fill="#ffffff" stroke="#9a28f8" stroke-dasharray="" style="fill: rgb(255, 255, 255); stroke: rgb(154, 40, 248);"></circle><line  x1="80" y1="266.6666666666667" x2="80" y2="400" id="v-155" stroke="#9a28f8" stroke-width="1" stroke-dasharray="" style="stroke: rgb(154, 40, 248);"></line><line  x1="320" y1="266.6666666666667" x2="320" y2="400" id="v-156" stroke="#9a28f8" stroke-width="1" stroke-dasharray="" style="stroke: rgb(154, 40, 248);"></line><text  id="v-150" font-size="33.599999999999994px" xml:space="preserve" y="250.8" font-weight="bold" text-anchor="middle" pointer-events="visible" font-family="Tahoma, Verdana, Helvetica, Arial" fill="#9a28f8" dominant-baseline="hanging" transform="matrix(1,0,0,1,200,0)" style="fill: rgb(154, 40, 248);"><tspan dy="0" >Администратор</tspan></text><text  id="v-151" font-size="16.799999999999997px" xml:space="preserve" y="292.4" text-anchor="middle" font-family="Tahoma, Verdana, Helvetica, Arial" fill="#9a28f8" dominant-baseline="hanging" transform="matrix(1,0,0,1,200,0)" style="display: block; fill: rgb(154, 40, 248);"><tspan dy="0" >[Person]</tspan></text><text  id="v-152" font-size="24px" xml:space="preserve" display="none" y="250.8" text-anchor="middle" font-family="Tahoma, Verdana, Helvetica, Arial" fill="#9a28f8" dominant-baseline="hanging" transform="matrix(1,0,0,1,200,0)" style="display: block; fill: rgb(154, 40, 248);"><tspan dy="0" style="fill-opacity: 0; stroke-opacity: 0;" >-</tspan></text><g  id="v-153" font-weight="normal" text-anchor="middle" color="#9a28f8" transform="matrix(1,0,0,1,197.5,368)" style="fill: rgb(154, 40, 248);" display="none"><g ></g><g ></g><g ></g><g ></g></g><image  id="v-154"></image></g></g><!--z-index:29--><g   id="j_18"  transform="translate(1039,659)" style=""><g  id="v-157" style="opacity: 1;"><rect  id="v-158" rx="20" ry="20" stroke-width="7" pointer-events="visiblePainted" fill="#ffffff" stroke="#9a28f8" stroke-dasharray="" width="450" height="300" style="fill: rgb(255, 255, 255); stroke: rgb(154, 40, 248);"></rect><text  id="v-159" font-size="33.599999999999994px" xml:space="preserve" y="120.80000000000001" font-weight="bold" text-anchor="middle" pointer-events="visible" font-family="Tahoma, Verdana, Helvetica, Arial" fill="#9a28f8" dominant-baseline="hanging" transform="matrix(1,0,0,1,225,0)" style="fill: rgb(154, 40, 248);"><tspan dy="0" >Почтовый сервер</tspan></text><text  id="v-160" font-size="16.799999999999997px" xml:space="preserve" y="162.4" text-anchor="middle" font-family="Tahoma, Verdana, Helvetica, Arial" fill="#9a28f8" dominant-baseline="hanging" transform="matrix(1,0,0,1,225,0)" style="display: block; fill: rgb(154, 40, 248);"><tspan dy="0" >[Software System]</tspan></text><text  id="v-161" font-size="24px" xml:space="preserve" display="none" y="120.80000000000001" text-anchor="middle" font-family="Tahoma, Verdana, Helvetica, Arial" fill="#9a28f8" dominant-baseline="hanging" transform="matrix(1,0,0,1,225,0)" style="display: block; fill: rgb(154, 40, 248);"><tspan dy="0" style="fill-opacity: 0; stroke-opacity: 0;" >-</tspan></text><g  id="v-162" color="#9a28f8" transform="matrix(1,0,0,1,222.5,268)" style="fill: rgb(154, 40, 248);" display="none"><g ></g><g ></g><g ></g><g ></g></g><image  id="v-163"></image></g></g><!--z-index:30--><g   id="j_20"  transform="translate(199,1059)" style="; opacity: 1;"><g id="v-171"><rect  id="v-172" width="4450" height="1179" rx="20" ry="20" stroke-width="5" pointer-events="none" stroke="#9a28f8" fill="#ffffff" opacity="1" stroke-dasharray=""></rect><text  id="v-173" font-size="33.599999999999994px" xml:space="preserve" y="1140" font-weight="bold" text-anchor="start" pointer-events="visible" font-family="Tahoma, Verdana, Helvetica, Arial" fill="#9a28f8" transform="matrix(1,0,0,1,15,0)"><tspan dy="0" >Airline tracker</tspan></text><text  id="v-174" font-size="16.799999999999997px" xml:space="preserve" y="1164" font-weight="normal" text-anchor="start" pointer-events="visible" font-family="Tahoma, Verdana, Helvetica, Arial" fill="#9a28f8" transform="matrix(1,0,0,1,15,0)"><tspan dy="0" >[Software System]</tspan></text><image  id="v-175" pointer-events="visible"></image></g></g><!--z-index:31--><g   id="j_19"  transform="translate(2569,1474)" style=""><g  id="v-164" style="opacity: 1;"><rect  id="v-165" rx="20" ry="20" stroke-width="7" pointer-events="visiblePainted" fill="#ffffff" stroke="#9a28f8" stroke-dasharray="" width="450" height="300" style="fill: rgb(255, 255, 255); stroke: rgb(154, 40, 248);"></rect><text  id="v-166" font-size="33.599999999999994px" xml:space="preserve" y="120.80000000000001" font-weight="bold" text-anchor="middle" pointer-events="visible" font-family="Tahoma, Verdana, Helvetica, Arial" fill="#9a28f8" dominant-baseline="hanging" transform="matrix(1,0,0,1,225,0)" style="fill: rgb(154, 40, 248);"><tspan dy="0" >Сайт</tspan></text><text  id="v-167" font-size="16.799999999999997px" xml:space="preserve" y="162.4" text-anchor="middle" font-family="Tahoma, Verdana, Helvetica, Arial" fill="#9a28f8" dominant-baseline="hanging" transform="matrix(1,0,0,1,225,0)" style="display: block; fill: rgb(154, 40, 248);"><tspan dy="0" >[Container]</tspan></text><text  id="v-168" font-size="24px" xml:space="preserve" display="none" y="120.80000000000001" text-anchor="middle" font-family="Tahoma, Verdana, Helvetica, Arial" fill="#9a28f8" dominant-baseline="hanging" transform="matrix(1,0,0,1,225,0)" style="display: block; fill: rgb(154, 40, 248);"><tspan dy="0" style="fill-opacity: 0; stroke-opacity: 0;" >-</tspan></text><g  id="v-169" color="#9a28f8" transform="matrix(1,0,0,1,210,268)" style="fill: rgb(154, 40, 248);" display="none"><g  transform="translate(5 0)"><svg xmlns="http://www.w3.org/2000/svg" width="20" height="20" fill="currentColor" viewBox="0 0 16 16"><path fill-rule="evenodd" d="M6.5 12a5.5 5.5 0 1 0 0-11 5.5 5.5 0 0 0 0 11zM13 6.5a6.5 6.5 0 1 1-13 0 6.5 6.5 0 0 1 13 0z"></path><path d="M10.344 11.742c.03.04.062.078.098.115l3.85 3.85a1 1 0 0 0 1.415-1.414l-3.85-3.85a1.007 1.007 0 0 0-.115-.1 6.538 6.538 0 0 1-1.398 1.4z"></path><path fill-rule="evenodd" d="M6.5 3a.5.5 0 0 1 .5.5V6h2.5a.5.5 0 0 1 0 1H7v2.5a.5.5 0 0 1-1 0V7H3.5a.5.5 0 0 1 0-1H6V3.5a.5.5 0 0 1 .5-.5z"></path></svg></g><g ></g><g ></g><g ></g></g><image  id="v-170"></image></g></g><!--z-index:32--><g   id="j_21"  transform="translate(4149,1109)" style=""><g  id="v-176" style="opacity: 1;"><path  d="M 0,30 a 225,30 0,0,0 450 0 a 225,30 0,0,0 -450 0 l 0,240 a 225,30 0,0,0 450 0 l 0,-240" id="v-177" stroke-width="7" pointer-events="visiblePainted" fill="#ffffff" stroke="#9a28f8" stroke-dasharray="" style="fill: rgb(255, 255, 255); stroke: rgb(154, 40, 248);"></path><rect  id="v-178" stroke-width="0" pointer-events="visiblePainted" fill="none" stroke="none" width="450" height="270" x="0" y="30"></rect><text  id="v-179" font-size="33.599999999999994px" xml:space="preserve" y="135.8" font-weight="bold" text-anchor="middle" pointer-events="visible" font-family="Tahoma, Verdana, Helvetica, Arial" fill="#9a28f8" dominant-baseline="hanging" transform="matrix(1,0,0,1,225,0)" style="fill: rgb(154, 40, 248);"><tspan dy="0" >БД</tspan></text><text  id="v-180" font-size="16.799999999999997px" xml:space="preserve" y="177.4" text-anchor="middle" font-family="Tahoma, Verdana, Helvetica, Arial" fill="#9a28f8" dominant-baseline="hanging" transform="matrix(1,0,0,1,225,0)" style="display: block; fill: rgb(154, 40, 248);"><tspan dy="0" >[Container]</tspan></text><text  id="v-181" font-size="24px" xml:space="preserve" display="none" y="135.8" text-anchor="middle" font-family="Tahoma, Verdana, Helvetica, Arial" fill="#9a28f8" dominant-baseline="hanging" transform="matrix(1,0,0,1,225,0)" style="display: block; fill: rgb(154, 40, 248);"><tspan dy="0" style="fill-opacity: 0; stroke-opacity: 0;" >-</tspan></text><g  id="v-182" font-weight="normal" text-anchor="middle" color="#9a28f8" transform="matrix(1,0,0,1,222.5,268)" style="fill: rgb(154, 40, 248);" display="none"><g ></g><g ></g><g ></g><g ></g></g><image  id="v-183"></image></g></g><!--z-index:33--><g   id="j_22"  transform="translate(4149,1459)" style=""><g  id="v-184" style="opacity: 1;"><path  d="M 0,30 a 225,30 0,0,0 450 0 a 225,30 0,0,0 -450 0 l 0,240 a 225,30 0,0,0 450 0 l 0,-240" id="v-185" stroke-width="7" pointer-events="visiblePainted" fill="#ffffff" stroke="#9a28f8" stroke-dasharray="" style="fill: rgb(255, 255, 255); stroke: rgb(154, 40, 248);"></path><rect  id="v-186" stroke-width="0" pointer-events="visiblePainted" fill="none" stroke="none" width="450" height="270" x="0" y="30"></rect><text  id="v-187" font-size="33.599999999999994px" xml:space="preserve" y="135.8" font-weight="bold" text-anchor="middle" pointer-events="visible" font-family="Tahoma, Verdana, Helvetica, Arial" fill="#9a28f8" dominant-baseline="hanging" transform="matrix(1,0,0,1,225,0)" style="fill: rgb(154, 40, 248);"><tspan dy="0" >Кэш</tspan></text><text  id="v-188" font-size="16.799999999999997px" xml:space="preserve" y="177.4" text-anchor="middle" font-family="Tahoma, Verdana, Helvetica, Arial" fill="#9a28f8" dominant-baseline="hanging" transform="matrix(1,0,0,1,225,0)" style="display: block; fill: rgb(154, 40, 248);"><tspan dy="0" >[Container]</tspan></text><text  id="v-189" font-size="24px" xml:space="preserve" display="none" y="135.8" text-anchor="middle" font-family="Tahoma, Verdana, Helvetica, Arial" fill="#9a28f8" dominant-baseline="hanging" transform="matrix(1,0,0,1,225,0)" style="display: block; fill: rgb(154, 40, 248);"><tspan dy="0" style="fill-opacity: 0; stroke-opacity: 0;" >-</tspan></text><g  id="v-190" font-weight="normal" text-anchor="middle" color="#9a28f8" transform="matrix(1,0,0,1,222.5,268)" style="fill: rgb(154, 40, 248);" display="none"><g ></g><g ></g><g ></g><g ></g></g><image  id="v-191"></image></g></g><!--z-index:34--><g   id="j_23"  transform="translate(3359,1474)" style=""><g  id="v-192" style="opacity: 1;"><rect  id="v-193" rx="20" ry="20" stroke-width="7" pointer-events="visiblePainted" fill="#ffffff" stroke="#9a28f8" stroke-dasharray="" width="450" height="300" style="fill: rgb(255, 255, 255); stroke: rgb(154, 40, 248);"></rect><text  id="v-194" font-size="33.599999999999994px" xml:space="preserve" y="120.80000000000001" font-weight="bold" text-anchor="middle" pointer-events="visible" font-family="Tahoma, Verdana, Helvetica, Arial" fill="#9a28f8" dominant-baseline="hanging" transform="matrix(1,0,0,1,225,0)" style="fill: rgb(154, 40, 248);"><tspan dy="0" >Бэкенд</tspan></text><text  id="v-195" font-size="16.799999999999997px" xml:space="preserve" y="162.4" text-anchor="middle" font-family="Tahoma, Verdana, Helvetica, Arial" fill="#9a28f8" dominant-baseline="hanging" transform="matrix(1,0,0,1,225,0)" style="display: block; fill: rgb(154, 40, 248);"><tspan dy="0" >[Container]</tspan></text><text  id="v-196" font-size="24px" xml:space="preserve" display="none" y="120.80000000000001" text-anchor="middle" font-family="Tahoma, Verdana, Helvetica, Arial" fill="#9a28f8" dominant-baseline="hanging" transform="matrix(1,0,0,1,225,0)" style="display: block; fill: rgb(154, 40, 248);"><tspan dy="0" style="fill-opacity: 0; stroke-opacity: 0;" >-</tspan></text><g  id="v-197" color="#9a28f8" transform="matrix(1,0,0,1,210,268)" style="fill: rgb(154, 40, 248);" display="none"><g  transform="translate(5 0)"><svg xmlns="http://www.w3.org/2000/svg" width="20" height="20" fill="currentColor" viewBox="0 0 16 16"><path fill-rule="evenodd" d="M6.5 12a5.5 5.5 0 1 0 0-11 5.5 5.5 0 0 0 0 11zM13 6.5a6.5 6.5 0 1 1-13 0 6.5 6.5 0 0 1 13 0z"></path><path d="M10.344 11.742c.03.04.062.078.098.115l3.85 3.85a1 1 0 0 0 1.415-1.414l-3.85-3.85a1.007 1.007 0 0 0-.115-.1 6.538 6.538 0 0 1-1.398 1.4z"></path><path fill-rule="evenodd" d="M6.5 3a.5.5 0 0 1 .5.5V6h2.5a.5.5 0 0 1 0 1H7v2.5a.5.5 0 0 1-1 0V7H3.5a.5.5 0 0 1 0-1H6V3.5a.5.5 0 0 1 .5-.5z"></path></svg></g><g ></g><g ></g><g ></g></g><image  id="v-198"></image></g></g><!--z-index:35--><g   id="j_24"  transform="translate(249,1184)" style=""><g  id="v-202" style="opacity: 1;"><rect  id="v-203" rx="20" ry="20" stroke-width="7" pointer-events="visiblePainted" fill="#ffffff" stroke="#9a28f8" stroke-dasharray="" width="450" height="300" style="fill: rgb(255, 255, 255); stroke: rgb(154, 40, 248);"></rect><text  id="v-204" font-size="33.599999999999994px" xml:space="preserve" y="100.64000000000001" font-weight="bold" text-anchor="middle" pointer-events="visible" font-family="Tahoma, Verdana, Helvetica, Arial" fill="#9a28f8" dominant-baseline="hanging" transform="matrix(1,0,0,1,225,0)" style="fill: rgb(154, 40, 248);"><tspan dy="0" >Сервис отправки</tspan><tspan dy="1.2em" x="0" >уведомлений</tspan></text><text  id="v-205" font-size="16.799999999999997px" xml:space="preserve" y="182.56" text-anchor="middle" font-family="Tahoma, Verdana, Helvetica, Arial" fill="#9a28f8" dominant-baseline="hanging" transform="matrix(1,0,0,1,225,0)" style="display: block; fill: rgb(154, 40, 248);"><tspan dy="0" >[Container]</tspan></text><text  id="v-206" font-size="24px" xml:space="preserve" display="none" y="100.64000000000001" text-anchor="middle" font-family="Tahoma, Verdana, Helvetica, Arial" fill="#9a28f8" dominant-baseline="hanging" transform="matrix(1,0,0,1,225,0)" style="display: block; fill: rgb(154, 40, 248);"><tspan dy="0" style="fill-opacity: 0; stroke-opacity: 0;" >-</tspan></text><g  id="v-207" color="#9a28f8" transform="matrix(1,0,0,1,210,268)" style="fill: rgb(154, 40, 248);" display="none"><g  transform="translate(5 0)"><svg xmlns="http://www.w3.org/2000/svg" width="20" height="20" fill="currentColor" viewBox="0 0 16 16"><path fill-rule="evenodd" d="M6.5 12a5.5 5.5 0 1 0 0-11 5.5 5.5 0 0 0 0 11zM13 6.5a6.5 6.5 0 1 1-13 0 6.5 6.5 0 0 1 13 0z"></path><path d="M10.344 11.742c.03.04.062.078.098.115l3.85 3.85a1 1 0 0 0 1.415-1.414l-3.85-3.85a1.007 1.007 0 0 0-.115-.1 6.538 6.538 0 0 1-1.398 1.4z"></path><path fill-rule="evenodd" d="M6.5 3a.5.5 0 0 1 .5.5V6h2.5a.5.5 0 0 1 0 1H7v2.5a.5.5 0 0 1-1 0V7H3.5a.5.5 0 0 1 0-1H6V3.5a.5.5 0 0 1 .5-.5z"></path></svg></g><g ></g><g ></g><g ></g></g><image  id="v-208"></image></g></g><!--z-index:36--><g   id="j_25"  transform="translate(4149,1809)" style=""><g  id="v-209" style="opacity: 1;"><path  d="M 30,0 a 30,150 0,0,1 0 300 a 30,150 0,0,1 0 -300 l 390,0 a 30,150 0,0,1 0 300 l -390,0" id="v-210" stroke-width="7" pointer-events="visiblePainted" fill="#ffffff" stroke="#9a28f8" stroke-dasharray="" style="fill: rgb(255, 255, 255); stroke: rgb(154, 40, 248);"></path><rect  id="v-211" stroke-width="0" pointer-events="visiblePainted" fill="none" stroke="none" width="420" height="300" x="30" y="0"></rect><text  id="v-212" font-size="33.599999999999994px" xml:space="preserve" y="120.80000000000001" font-weight="bold" text-anchor="middle" pointer-events="visible" font-family="Tahoma, Verdana, Helvetica, Arial" fill="#9a28f8" dominant-baseline="hanging" transform="matrix(1,0,0,1,240,0)" style="fill: rgb(154, 40, 248);"><tspan dy="0" >Kafka</tspan></text><text  id="v-213" font-size="16.799999999999997px" xml:space="preserve" y="162.4" text-anchor="middle" font-family="Tahoma, Verdana, Helvetica, Arial" fill="#9a28f8" dominant-baseline="hanging" transform="matrix(1,0,0,1,240,0)" style="display: block; fill: rgb(154, 40, 248);"><tspan dy="0" >[Container]</tspan></text><text  id="v-214" font-size="24px" xml:space="preserve" display="none" y="120.80000000000001" text-anchor="middle" font-family="Tahoma, Verdana, Helvetica, Arial" fill="#9a28f8" dominant-baseline="hanging" transform="matrix(1,0,0,1,240,0)" style="display: block; fill: rgb(154, 40, 248);"><tspan dy="0" style="fill-opacity: 0; stroke-opacity: 0;" >-</tspan></text><g  id="v-215" font-weight="normal" text-anchor="middle" color="#9a28f8" transform="matrix(1,0,0,1,237.5,268)" style="fill: rgb(154, 40, 248);" display="none"><g ></g><g ></g><g ></g><g ></g></g><image  id="v-216"></image></g></g><!--z-index:37--><g   id="j_26"  style="opacity: 1;"><path fill="none" cursor="pointer" stroke="transparent" stroke-linecap="round" joint-selector="wrapper" id="v-228" stroke-width="10" stroke-linejoin="round" d="M 2096.9 559 L 2396 1439 C 2398 1445.6 2402 1450.2666666666667 2408 1453 L 2569 1524.26"></path><path fill="none" pointer-events="none" joint-selector="line" id="v-227" stroke="#444444" stroke-width="4" stroke-linejoin="round" stroke-dasharray="16 16" d="M 2096.9 559 L 2396 1439 C 2398 1445.6 2402 1450.2666666666667 2408 1453 L 2569 1524.26" marker-end="url(#v-2633353823)"></path><g id="v-220" ><g id="v-221"  label-idx="0" cursor="move" transform="matrix(1,0,0,1,2400.267822265625,1447.17431640625)" style="cursor: default;"><rect joint-selector="rect" id="v-224" fill="#ffffff" rx="3" ry="3" x="-86.13372039794922" y="-43.92557907104492" width="172.43507385253906" height="85.5069808959961" pointer-events="none"  style="display: block;"></rect><text joint-selector="text" id="v-223" font-size="24px" xml:space="preserve" fill="#444444" text-anchor="middle" pointer-events="none" font-family="Tahoma, Verdana, Helvetica, Arial" font-weight="normal"  style="display: block;"><tspan dy="-0.8999999999999999em" >Просматривает</tspan><tspan dy="1.2em" x="0" >полёты,</tspan><tspan dy="1.2em" x="0" >используя</tspan></text></g><g id="v-222"  label-idx="1" cursor="move" transform="matrix(1,0,0,1,2390.267822265625,1487.974365234375)" style="cursor: default;"><rect joint-selector="rect" id="v-226" fill="#ffffff" rx="3" ry="3" x="0" y="0" width="0" height="0"  display="none"></rect><text joint-selector="text" id="v-225" fill="#000000" font-size="14" text-anchor="middle" text-vertical-anchor="middle" pointer-events="none"></text></g></g></g><!--z-index:38--><g   id="j_27"  style="opacity: 1;"><path fill="none" cursor="pointer" stroke="transparent" stroke-linecap="round" joint-selector="wrapper" id="v-240" stroke-width="10" stroke-linejoin="round" d="M 2115.09 1009 L 2395 1659 C 2397.6666666666665 1665.3999999999999 2402.333333333333 1668.0666666666666 2409 1667 L 2569 1649.41"></path><path fill="none" pointer-events="none" joint-selector="line" id="v-239" stroke="#444444" stroke-width="4" stroke-linejoin="round" stroke-dasharray="16 16" d="M 2115.09 1009 L 2395 1659 C 2397.6666666666665 1665.3999999999999 2402.333333333333 1668.0666666666666 2409 1667 L 2569 1649.41" marker-end="url(#v-2633353823)"></path><g id="v-232" ><g id="v-233"  label-idx="0" cursor="move" transform="matrix(1,0,0,1,2399.830810546875,1665.3826904296875)" style="cursor: default;"><rect joint-selector="rect" id="v-236" fill="#ffffff" rx="3" ry="3" x="-96.16278839111328" y="-58.32558059692383" width="192.32557678222656" height="114.30697631835938" pointer-events="none"  style="display: block;"></rect><text joint-selector="text" id="v-235" font-size="24px" xml:space="preserve" fill="#444444" text-anchor="middle" pointer-events="none" font-family="Tahoma, Verdana, Helvetica, Arial" font-weight="normal"  style="display: block;"><tspan dy="-1.4999999999999998em" >Просматривает и</tspan><tspan dy="1.2em" x="0" >отслеживает</tspan><tspan dy="1.2em" x="0" >полёты,</tspan><tspan dy="1.2em" x="0" >используя</tspan></text></g><g id="v-234"  label-idx="1" cursor="move" transform="matrix(1,0,0,1,2389.830810546875,1720.5826416015625)" style="cursor: default;"><rect joint-selector="rect" id="v-238" fill="#ffffff" rx="3" ry="3" x="0" y="0" width="0" height="0"  display="none"></rect><text joint-selector="text" id="v-237" fill="#000000" font-size="14" text-anchor="middle" text-vertical-anchor="middle" pointer-events="none"></text></g></g></g><!--z-index:39--><g   id="j_28"  style="opacity: 1;"><path fill="none" cursor="pointer" stroke="transparent" stroke-linecap="round" joint-selector="wrapper" id="v-252" stroke-width="10" stroke-linejoin="round" d="M 2179.96 2209 L 2393 1927 C 2397 1921.533333333333 2401.6666666666665 1916.8666666666663 2407 1913 L 2593.02 1774"></path><path fill="none" pointer-events="none" joint-selector="line" id="v-251" stroke="#444444" stroke-width="4" stroke-linejoin="round" stroke-dasharray="16 16" d="M 2179.96 2209 L 2393 1927 C 2397 1921.533333333333 2401.6666666666665 1916.8666666666663 2407 1913 L 2593.02 1774" marker-end="url(#v-2633353823)"></path><g id="v-244" ><g id="v-245"  label-idx="0" cursor="move" transform="matrix(1,0,0,1,2399.746826171875,1919.1546630859375)" style="cursor: default;"><rect joint-selector="rect" id="v-248" fill="#ffffff" rx="3" ry="3" x="-58.270347595214844" y="-43.92557907104492" width="116.69373321533203" height="85.5069808959961" pointer-events="none"  style="display: block;"></rect><text joint-selector="text" id="v-247" font-size="24px" xml:space="preserve" fill="#444444" text-anchor="middle" pointer-events="none" font-family="Tahoma, Verdana, Helvetica, Arial" font-weight="normal"  style="display: block;"><tspan dy="-0.8999999999999999em" >Управляет</tspan><tspan dy="1.2em" x="0" >полётами,</tspan><tspan dy="1.2em" x="0" >используя</tspan></text></g><g id="v-246"  label-idx="1" cursor="move" transform="matrix(1,0,0,1,2389.746826171875,1959.95458984375)" style="cursor: default;"><rect joint-selector="rect" id="v-250" fill="#ffffff" rx="3" ry="3" x="0" y="0" width="0" height="0"  display="none"></rect><text joint-selector="text" id="v-249" fill="#000000" font-size="14" text-anchor="middle" text-vertical-anchor="middle" pointer-events="none"></text></g></g></g><!--z-index:40--><g   id="j_29"  style="opacity: 1;"><path fill="none" cursor="pointer" stroke="transparent" stroke-linecap="round" joint-selector="wrapper" id="v-261" stroke-width="10" stroke-linejoin="round" d="M 3019 1624 L 3359 1624"></path><path fill="none" pointer-events="none" joint-selector="line" id="v-260" stroke="#444444" stroke-width="4" stroke-linejoin="round" stroke-dasharray="16 16" d="M 3019 1624 L 3359 1624" marker-end="url(#v-2633353823)"></path><g id="v-253" ><g id="v-254"  label-idx="0" cursor="move" transform="matrix(1,0,0,1,3189,1624)" style="cursor: default;"><rect joint-selector="rect" id="v-257" fill="#ffffff" rx="3" ry="3" x="-19.33139419555664" y="-15.125578880310059" width="38.66278839111328" height="27.90697479248047" pointer-events="none"  style="display: block;"></rect><text joint-selector="text" id="v-256" font-size="24px" xml:space="preserve" fill="#444444" text-anchor="middle" pointer-events="none" font-family="Tahoma, Verdana, Helvetica, Arial" font-weight="normal"  style="display: block;"><tspan dy="0.3em" >API</tspan></text></g><g id="v-255"  label-idx="1" cursor="move" transform="matrix(1,0,0,1,3179,1636)" style="cursor: default;"><rect joint-selector="rect" id="v-259" fill="#ffffff" rx="3" ry="3" x="0" y="0" width="0" height="0"  display="none"></rect><text joint-selector="text" id="v-258" fill="#000000" font-size="14" text-anchor="middle" text-vertical-anchor="middle" pointer-events="none"></text></g></g></g><!--z-index:41--><g   id="j_30"  style="opacity: 1;"><path fill="none" cursor="pointer" stroke="transparent" stroke-linecap="round" joint-selector="wrapper" id="v-273" stroke-width="10" stroke-linejoin="round" d="M 3720.52 1474 L 3972 1197 C 3976.6666666666665 1192.3333333333333 3982.333333333333 1190.6666666666665 3989 1192 L 4149 1219.7"></path><path fill="none" pointer-events="none" joint-selector="line" id="v-272" stroke="#444444" stroke-width="4" stroke-linejoin="round" stroke-dasharray="16 16" d="M 3720.52 1474 L 3972 1197 C 3976.6666666666665 1192.3333333333333 3982.333333333333 1190.6666666666665 3989 1192 L 4149 1219.7" marker-end="url(#v-2633353823)"></path><g id="v-265" ><g id="v-266"  label-idx="0" cursor="move" transform="matrix(1,0,0,1,3979.51806640625,1192.320068359375)" style="cursor: default;"><rect joint-selector="rect" id="v-269" fill="#ffffff" rx="3" ry="3" x="-85.68313598632812" y="-15.125578880310059" width="171.36627197265625" height="27.90697479248047" pointer-events="none"  style="display: block;"></rect><text joint-selector="text" id="v-268" font-size="24px" xml:space="preserve" fill="#444444" text-anchor="middle" pointer-events="none" font-family="Tahoma, Verdana, Helvetica, Arial" font-weight="normal"  style="display: block;"><tspan dy="0.3em" >Хранит данные</tspan></text></g><g id="v-267"  label-idx="1" cursor="move" transform="matrix(1,0,0,1,3969.51806640625,1204.320068359375)" style="cursor: default;"><rect joint-selector="rect" id="v-271" fill="#ffffff" rx="3" ry="3" x="0" y="0" width="0" height="0"  display="none"></rect><text joint-selector="text" id="v-270" fill="#000000" font-size="14" text-anchor="middle" text-vertical-anchor="middle" pointer-events="none"></text></g></g></g><!--z-index:42--><g   id="j_31"  style="opacity: 1;"><path fill="none" cursor="pointer" stroke="transparent" stroke-linecap="round" joint-selector="wrapper" id="v-285" stroke-width="10" stroke-linejoin="round" d="M 3809 1615.46 L 3969 1609 C 3975.6666666666665 1608.9999999999998 3982.333333333333 1608.9999999999998 3989 1609 L 4149 1609"></path><path fill="none" pointer-events="none" joint-selector="line" id="v-284" stroke="#444444" stroke-width="4" stroke-linejoin="round" stroke-dasharray="16 16" d="M 3809 1615.46 L 3969 1609 C 3975.6666666666665 1608.9999999999998 3982.333333333333 1608.9999999999998 3989 1609 L 4149 1609" marker-end="url(#v-2633353823)"></path><g id="v-277" ><g id="v-278"  label-idx="0" cursor="move" transform="matrix(1,0,0,1,3979,1609)" style="cursor: default;"><rect joint-selector="rect" id="v-281" fill="#ffffff" rx="3" ry="3" x="-85.68313598632812" y="-15.125578880310059" width="171.36627197265625" height="27.90697479248047" pointer-events="none"  style="display: block;"></rect><text joint-selector="text" id="v-280" font-size="24px" xml:space="preserve" fill="#444444" text-anchor="middle" pointer-events="none" font-family="Tahoma, Verdana, Helvetica, Arial" font-weight="normal"  style="display: block;"><tspan dy="0.3em" >Хранит данные</tspan></text></g><g id="v-279"  label-idx="1" cursor="move" transform="matrix(1,0,0,1,3969,1621)" style="cursor: default;"><rect joint-selector="rect" id="v-283" fill="#ffffff" rx="3" ry="3" x="0" y="0" width="0" height="0"  display="none"></rect><text joint-selector="text" id="v-282" fill="#000000" font-size="14" text-anchor="middle" text-vertical-anchor="middle" pointer-events="none"></text></g></g></g><!--z-index:43--><g   id="j_32"  style="opacity: 1;"><path fill="none" cursor="pointer" stroke="transparent" stroke-linecap="round" joint-selector="wrapper" id="v-297" stroke-width="10" stroke-linejoin="round" d="M 3809 1740.32 L 3970 1824 C 3976 1826.8 3982 1829.1333333333332 3988 1831 L 4149 1884.49"></path><path fill="none" pointer-events="none" joint-selector="line" id="v-296" stroke="#444444" stroke-width="4" stroke-linejoin="round" stroke-dasharray="16 16" d="M 3809 1740.32 L 3970 1824 C 3976 1826.8 3982 1829.1333333333332 3988 1831 L 4149 1884.49" marker-end="url(#v-2633353823)"></path><g id="v-289" ><g id="v-290"  label-idx="0" cursor="move" transform="matrix(1,0,0,1,3979.0703125,1827.8773193359375)" style="cursor: default;"><rect joint-selector="rect" id="v-293" fill="#ffffff" rx="3" ry="3" x="-66.0029067993164" y="-29.52558135986328" width="132.1754608154297" height="56.70697784423828" pointer-events="none"  style="display: block;"></rect><text joint-selector="text" id="v-292" font-size="24px" xml:space="preserve" fill="#444444" text-anchor="middle" pointer-events="none" font-family="Tahoma, Verdana, Helvetica, Arial" font-weight="normal"  style="display: block;"><tspan dy="-0.3em" >Отправляет</tspan><tspan dy="1.2em" x="0" >сообщения</tspan></text></g><g id="v-291"  label-idx="1" cursor="move" transform="matrix(1,0,0,1,3969.0703125,1854.27734375)" style="cursor: default;"><rect joint-selector="rect" id="v-295" fill="#ffffff" rx="3" ry="3" x="-4.547473508864641e-13" y="0" width="0" height="0"  display="none"></rect><text joint-selector="text" id="v-294" fill="#000000" font-size="14" text-anchor="middle" text-vertical-anchor="middle" pointer-events="none"></text></g></g></g><!--z-index:44--><g   id="j_33"  style="opacity: 1;"><path fill="none" cursor="pointer" stroke="transparent" stroke-linecap="round" joint-selector="wrapper" id="v-309" stroke-width="10" stroke-linejoin="round" d="M 559.37 1484 L 864 2019 C 867.3333333333333 2025 872.3333333333333 2028 879 2028 L 3969 2028 C 3975.6666666666665 2028 3982.333333333333 2027.3333333333333 3989 2026 L 4149 1998.3"></path><path fill="none" pointer-events="none" joint-selector="line" id="v-308" stroke="#444444" stroke-width="4" stroke-linejoin="round" stroke-dasharray="16 16" d="M 559.37 1484 L 864 2019 C 867.3333333333333 2025 872.3333333333333 2028 879 2028 L 3969 2028 C 3975.6666666666665 2028 3982.333333333333 2027.3333333333333 3989 2026 L 4149 1998.3" marker-end="url(#v-2633353823)"></path><g id="v-301" ><g id="v-302"  label-idx="0" cursor="move" transform="matrix(1,0,0,1,2399.79052734375,2028)" style="cursor: default;"><rect joint-selector="rect" id="v-305" fill="#ffffff" rx="3" ry="3" x="-98.22673797607422" y="-15.125578880310059" width="196.45347595214844" height="27.90697479248047" pointer-events="none"  style="display: block;"></rect><text joint-selector="text" id="v-304" font-size="24px" xml:space="preserve" fill="#444444" text-anchor="middle" pointer-events="none" font-family="Tahoma, Verdana, Helvetica, Arial" font-weight="normal"  style="display: block;"><tspan dy="0.3em" >Получает данные</tspan></text></g><g id="v-303"  label-idx="1" cursor="move" transform="matrix(1,0,0,1,2389.79052734375,2040)" style="cursor: default;"><rect joint-selector="rect" id="v-307" fill="#ffffff" rx="3" ry="3" x="0" y="0" width="0" height="0"  display="none"></rect><text joint-selector="text" id="v-306" fill="#000000" font-size="14" text-anchor="middle" text-vertical-anchor="middle" pointer-events="none"></text></g></g></g><!--z-index:45--><g   id="j_34"  style="opacity: 1;"><path fill="none" cursor="pointer" stroke="transparent" stroke-linecap="round" joint-selector="wrapper" id="v-324" stroke-width="10" stroke-linejoin="round" d="M 699 1259.89 L 860 1207 C 865.9999999999999 1204.9333333333334 871.3333333333333 1201.6 876 1197 L 1113.96 959"></path><path fill="none" pointer-events="none" joint-selector="line" id="v-323" stroke="#444444" stroke-width="4" stroke-linejoin="round" stroke-dasharray="16 16" d="M 699 1259.89 L 860 1207 C 865.9999999999999 1204.9333333333334 871.3333333333333 1201.6 876 1197 L 1113.96 959" marker-end="url(#v-2633353823)"></path><g id="v-313" ><g id="v-314"  label-idx="0" cursor="move" transform="matrix(1,0,0,1,868.46875,1189.5694580078125)" style="cursor: default;"><rect joint-selector="rect" id="v-318" fill="#ffffff" rx="3" ry="3" x="-66.0029067993164" y="-29.52558135986328" width="132.1754608154297" height="56.70697784423828" pointer-events="none"  style="display: block;"></rect><text joint-selector="text" id="v-317" font-size="24px" xml:space="preserve" fill="#444444" text-anchor="middle" pointer-events="none" font-family="Tahoma, Verdana, Helvetica, Arial" font-weight="normal"  style="display: block;"><tspan dy="-0.3em" >Отправляет</tspan><tspan dy="1.2em" x="0" >письмо</tspan></text></g><g id="v-315"  label-idx="1" cursor="move" transform="matrix(1,0,0,1,868.46875,1234.3695068359375)" style="cursor: default;"><rect joint-selector="rect" id="v-320" fill="#ffffff" rx="3" ry="3" x="-27.96511459350586" y="-9.843720436096191" width="55.93022918701172" height="18.604650497436523"  pointer-events="none" style="display: block;"></rect><text joint-selector="text" id="v-319" font-size="16.799999999999997px" xml:space="preserve" fill="#444444" text-anchor="middle" pointer-events="none" font-family="Tahoma, Verdana, Helvetica, Arial" font-weight="normal"  style="display: block;"><tspan dy="0.3em" >[SMTP]</tspan></text></g><g id="v-316"  label-idx="2" cursor="move" transform="matrix(1,0,0,1,918.3439331054688,1184.447265625)" style="cursor: default;"><rect joint-selector="rect" id="v-322" fill="#ffffff" rx="3" ry="3" x="0" y="0" width="0" height="0"  display="none"></rect><text joint-selector="text" id="v-321" fill="#000000" font-size="14" text-anchor="middle" text-vertical-anchor="middle" pointer-events="none"></text></g></g></g><!--z-index:46--><g   id="j_35"  style="opacity: 1;"><path fill="none" cursor="pointer" stroke="transparent" stroke-linecap="round" joint-selector="wrapper" id="v-339" stroke-width="10" stroke-linejoin="round" d="M 699 1316.85 L 859 1305 C 865.6666666666665 1304.2666666666667 872.3333333333333 1303.9333333333334 879 1304 L 3969 1304 C 3975.6666666666665 1303.9333333333334 3982.333333333333 1303.6 3989 1303 L 4149 1284.58"></path><path fill="none" pointer-events="none" joint-selector="line" id="v-338" stroke="#444444" stroke-width="4" stroke-linejoin="round" stroke-dasharray="16 16" d="M 699 1316.85 L 859 1305 C 865.6666666666665 1304.2666666666667 872.3333333333333 1303.9333333333334 879 1304 L 3969 1304 C 3975.6666666666665 1303.9333333333334 3982.333333333333 1303.6 3989 1303 L 4149 1284.58" marker-end="url(#v-2633353823)"></path><g id="v-328" ><g id="v-329"  label-idx="0" cursor="move" transform="matrix(1,0,0,1,2399.00537109375,1290.5999755859375)" style="cursor: default;"><rect joint-selector="rect" id="v-333" fill="#ffffff" rx="3" ry="3" x="-74.02616119384766" y="-43.92557907104492" width="148.08860778808594" height="85.5069808959961" pointer-events="none"  style="display: block;"></rect><text joint-selector="text" id="v-332" font-size="24px" xml:space="preserve" fill="#444444" text-anchor="middle" pointer-events="none" font-family="Tahoma, Verdana, Helvetica, Arial" font-weight="normal"  style="display: block;"><tspan dy="-0.8999999999999999em" >Читает и</tspan><tspan dy="1.2em" x="0" >записывает</tspan><tspan dy="1.2em" x="0" >уведомления</tspan></text></g><g id="v-330"  label-idx="1" cursor="move" transform="matrix(1,0,0,1,2399.00537109375,1349.800048828125)" style="cursor: default;"><rect joint-selector="rect" id="v-335" fill="#ffffff" rx="3" ry="3" x="-21.453487396240234" y="-9.843720436096191" width="42.90697479248047" height="18.604650497436523"  pointer-events="none" style="display: block;"></rect><text joint-selector="text" id="v-334" font-size="16.799999999999997px" xml:space="preserve" fill="#444444" text-anchor="middle" pointer-events="none" font-family="Tahoma, Verdana, Helvetica, Arial" font-weight="normal"  style="display: block;"><tspan dy="0.3em" >[SQL]</tspan></text></g><g id="v-331"  label-idx="2" cursor="move" transform="matrix(1,0,0,1,2414.30615234375,1358.199951171875)" style="cursor: default;"><rect joint-selector="rect" id="v-337" fill="#ffffff" rx="3" ry="3" x="0" y="0" width="0" height="0"  display="none"></rect><text joint-selector="text" id="v-336" fill="#000000" font-size="14" text-anchor="middle" text-vertical-anchor="middle" pointer-events="none"></text></g></g></g><!--z-index:47--><g   id="j_36"  style="opacity: 1;"><path fill="none" cursor="pointer" stroke="transparent" stroke-linecap="round" joint-selector="wrapper" id="v-351" stroke-width="10" stroke-linejoin="round" d="M 1489 809 L 1829 809"></path><path fill="none" pointer-events="none" joint-selector="line" id="v-350" stroke="#444444" stroke-width="4" stroke-linejoin="round" stroke-dasharray="16 16" d="M 1489 809 L 1829 809" marker-end="url(#v-2633353823)"></path><g id="v-343" ><g id="v-344"  label-idx="0" cursor="move" transform="matrix(1,0,0,1,1659,809)" style="cursor: default;"><rect joint-selector="rect" id="v-347" fill="#ffffff" rx="3" ry="3" x="-90.69766998291016" y="-58.32558059692383" width="181.3953399658203" height="114.30697631835938" pointer-events="none"  style="display: block;"></rect><text joint-selector="text" id="v-346" font-size="24px" xml:space="preserve" fill="#444444" text-anchor="middle" pointer-events="none" font-family="Tahoma, Verdana, Helvetica, Arial" font-weight="normal"  style="display: block;"><tspan dy="-1.4999999999999998em" >Доставляет</tspan><tspan dy="1.2em" x="0" >уведомление по</tspan><tspan dy="1.2em" x="0" >электронной</tspan><tspan dy="1.2em" x="0" >почте</tspan></text></g><g id="v-345"  label-idx="1" cursor="move" transform="matrix(1,0,0,1,1649,864.2000122070312)" style="cursor: default;"><rect joint-selector="rect" id="v-349" fill="#ffffff" rx="3" ry="3" x="0" y="0" width="0" height="0"  display="none"></rect><text joint-selector="text" id="v-348" fill="#000000" font-size="14" text-anchor="middle" text-vertical-anchor="middle" pointer-events="none"></text></g></g></g><!--z-index:48--></g><g  style="user-select: none;"></g><g ></g><g  display="none"></g></g></svg>