<?plantuml 1.2026.2?><svg xmlns="http://www.w3.org/2000/svg" xmlns:xlink="http://www.w3.org/1999/xlink" contentStyleType="text/css" data-diagram-type="CLASS" height="817px" preserveAspectRatio="none" style="width:646px;height:817px;background:#FFFFFF;" version="1.1" viewBox="0 0 646 817" width="646px" zoomAndPan="magnify"><defs/><g><!--class aircraft--><g class="entity" data-qualified-name="aircraft" data-source-line="6" id="ent0002"><rect fill="#FFFFFF" height="140.4075" rx="2.5" ry="2.5" style="stroke:#000000;stroke-width:1;" width="229.5452" x="211.5" y="451"/><ellipse cx="298.7857" cy="465.534" fill="#FFFFFF" rx="9" ry="9" style="stroke:#000000;stroke-width:1;"/><path d="M302.1919,467.5027 C301.4732,468.1746 300.1763,469.3465 298.4263,469.3465 C296.2075,469.3465 295.2388,467.409 295.2388,465.4558 C295.2388,463.0652 296.7232,461.7996 298.3638,461.7996 C300.3794,461.7996 300.5982,463.3152 300.77,464.409 L302.1919,464.2215 C302.0982,463.6433 302.02,463.0652 302.02,462.0965 C302.02,461.4246 302.0669,460.8777 302.0982,460.4558 L300.6919,460.4558 L300.5825,461.409 C299.9888,460.8777 299.3482,460.3308 298.1294,460.3308 C296.0825,460.3308 293.6763,462.159 293.6763,465.4715 C293.6763,468.409 295.4419,470.7996 298.4419,470.7996 C300.8794,470.7996 302.5825,469.1746 303.1763,468.5965 L302.1919,467.5027 Z " fill="#000000"/><text fill="#000000" font-family="Verdana" font-size="14" lengthAdjust="spacing" textLength="47.4738" x="316.2857" y="470.9659">aircraft</text><line style="stroke:#000000;stroke-width:1;" x1="212.5" x2="440.0452" y1="480.0679" y2="480.0679"/><text fill="#000000" font-family="Verdana" font-size="14" lengthAdjust="spacing" textLength="150.7234" x="217.5" y="499.0339">aircraft_model_id: uuid</text><text fill="#000000" font-family="Verdana" font-size="14" lengthAdjust="spacing" textLength="107.4636" x="217.5" y="518.1018">mileage: integer</text><text fill="#000000" font-family="Verdana" font-size="14" lengthAdjust="spacing" textLength="49.1398" x="217.5" y="537.1697">id: uuid</text><line style="stroke:#000000;stroke-width:1;" x1="212.5" x2="440.0452" y1="545.2717" y2="545.2717"/><text fill="#000000" font-family="Verdana" font-size="14" lengthAdjust="spacing" textLength="217.5452" x="217.5" y="564.2376">registration_number: varchar(10)</text><text fill="#000000" font-family="Verdana" font-size="14" lengthAdjust="spacing" textLength="175.9233" x="217.5" y="583.3055">serial_number: varchar(10)</text></g><!--class aircraft_models--><g class="entity" data-qualified-name="aircraft_models" data-source-line="13" id="ent0003"><rect fill="#FFFFFF" height="159.4754" rx="2.5" ry="2.5" style="stroke:#000000;stroke-width:1;" width="184.3673" x="234.5" y="651"/><ellipse cx="271.9322" cy="665.534" fill="#FFFFFF" rx="9" ry="9" style="stroke:#000000;stroke-width:1;"/><path d="M275.3384,667.5027 C274.6197,668.1746 273.3228,669.3465 271.5728,669.3465 C269.354,669.3465 268.3853,667.409 268.3853,665.4558 C268.3853,663.0652 269.8697,661.7996 271.5103,661.7996 C273.5259,661.7996 273.7447,663.3152 273.9165,664.409 L275.3384,664.2215 C275.2447,663.6433 275.1665,663.0652 275.1665,662.0965 C275.1665,661.4246 275.2134,660.8777 275.2447,660.4558 L273.8384,660.4558 L273.729,661.409 C273.1353,660.8777 272.4947,660.3308 271.2759,660.3308 C269.229,660.3308 266.8228,662.159 266.8228,665.4715 C266.8228,668.409 268.5884,670.7996 271.5884,670.7996 C274.0259,670.7996 275.729,669.1746 276.3228,668.5965 L275.3384,667.5027 Z " fill="#000000"/><text fill="#000000" font-family="Verdana" font-size="14" lengthAdjust="spacing" textLength="102.0736" x="289.3615" y="670.9659">aircraft_models</text><line style="stroke:#000000;stroke-width:1;" x1="235.5" x2="417.8673" y1="680.0679" y2="680.0679"/><text fill="#000000" font-family="Verdana" font-size="14" lengthAdjust="spacing" textLength="89.2497" x="240.5" y="699.0339">mass: integer</text><text fill="#000000" font-family="Verdana" font-size="14" lengthAdjust="spacing" textLength="139.8035" x="240.5" y="718.1018">max_altitude: integer</text><text fill="#000000" font-family="Verdana" font-size="14" lengthAdjust="spacing" textLength="129.1775" x="240.5" y="737.1697">max_speed: integer</text><text fill="#000000" font-family="Verdana" font-size="14" lengthAdjust="spacing" textLength="49.1398" x="240.5" y="756.2376">id: uuid</text><line style="stroke:#000000;stroke-width:1;" x1="235.5" x2="417.8673" y1="764.3396" y2="764.3396"/><text fill="#000000" font-family="Verdana" font-size="14" lengthAdjust="spacing" textLength="172.3673" x="240.5" y="783.3055">manufacturer: varchar(50)</text><text fill="#000000" font-family="Verdana" font-size="14" lengthAdjust="spacing" textLength="123.2415" x="240.5" y="802.3734">model: varchar(50)</text></g><!--class airports--><g class="entity" data-qualified-name="airports" data-source-line="21" id="ent0004"><rect fill="#FFFFFF" height="140.4075" rx="2.5" ry="2.5" style="stroke:#000000;stroke-width:1;" width="155.8494" x="476.5" y="451"/><ellipse cx="524.7398" cy="465.534" fill="#FFFFFF" rx="9" ry="9" style="stroke:#000000;stroke-width:1;"/><path d="M528.1461,467.5027 C527.4273,468.1746 526.1304,469.3465 524.3804,469.3465 C522.1617,469.3465 521.1929,467.409 521.1929,465.4558 C521.1929,463.0652 522.6773,461.7996 524.3179,461.7996 C526.3336,461.7996 526.5523,463.3152 526.7242,464.409 L528.1461,464.2215 C528.0523,463.6433 527.9742,463.0652 527.9742,462.0965 C527.9742,461.4246 528.0211,460.8777 528.0523,460.4558 L526.6461,460.4558 L526.5367,461.409 C525.9429,460.8777 525.3023,460.3308 524.0836,460.3308 C522.0367,460.3308 519.6304,462.159 519.6304,465.4715 C519.6304,468.409 521.3961,470.7996 524.3961,470.7996 C526.8336,470.7996 528.5367,469.1746 529.1304,468.5965 L528.1461,467.5027 Z " fill="#000000"/><text fill="#000000" font-family="Verdana" font-size="14" lengthAdjust="spacing" textLength="51.8698" x="542.2398" y="470.9659">airports</text><line style="stroke:#000000;stroke-width:1;" x1="477.5" x2="631.3494" y1="480.0679" y2="480.0679"/><text fill="#000000" font-family="Verdana" font-size="14" lengthAdjust="spacing" textLength="49.1398" x="482.5" y="499.0339">id: uuid</text><line style="stroke:#000000;stroke-width:1;" x1="477.5" x2="631.3494" y1="507.1358" y2="507.1358"/><text fill="#000000" font-family="Verdana" font-size="14" lengthAdjust="spacing" textLength="143.8494" x="482.5" y="526.1018">iata_code: varchar(10)</text><text fill="#000000" font-family="Verdana" font-size="14" lengthAdjust="spacing" textLength="114.7995" x="482.5" y="545.1697">title: varchar(128)</text><text fill="#000000" font-family="Verdana" font-size="14" lengthAdjust="spacing" textLength="112.0975" x="482.5" y="564.2376">city: varchar(128)</text><text fill="#000000" font-family="Verdana" font-size="14" lengthAdjust="spacing" textLength="140.0414" x="482.5" y="583.3055">country: varchar(128)</text></g><!--class flights--><g class="entity" data-qualified-name="flights" data-source-line="28" id="ent0005"><rect fill="#FFFFFF" height="197.6113" rx="2.5" ry="2.5" style="stroke:#000000;stroke-width:1;" width="230.0632" x="212.5" y="193"/><ellipse cx="303.2507" cy="207.534" fill="#FFFFFF" rx="9" ry="9" style="stroke:#000000;stroke-width:1;"/><path d="M306.6569,209.5027 C305.9382,210.1746 304.6413,211.3465 302.8913,211.3465 C300.6725,211.3465 299.7038,209.409 299.7038,207.4558 C299.7038,205.0652 301.1882,203.7996 302.8288,203.7996 C304.8444,203.7996 305.0632,205.3152 305.235,206.409 L306.6569,206.2215 C306.5632,205.6433 306.485,205.0652 306.485,204.0965 C306.485,203.4246 306.5319,202.8777 306.5632,202.4558 L305.1569,202.4558 L305.0475,203.409 C304.4538,202.8777 303.8132,202.3308 302.5944,202.3308 C300.5475,202.3308 298.1413,204.159 298.1413,207.4715 C298.1413,210.409 299.9069,212.7996 302.9069,212.7996 C305.3444,212.7996 307.0475,211.1746 307.6413,210.5965 L306.6569,209.5027 Z " fill="#000000"/><text fill="#000000" font-family="Verdana" font-size="14" lengthAdjust="spacing" textLength="41.0618" x="320.7507" y="212.9659">flights</text><line style="stroke:#000000;stroke-width:1;" x1="213.5" x2="441.5632" y1="222.0679" y2="222.0679"/><text fill="#000000" font-family="Verdana" font-size="14" lengthAdjust="spacing" textLength="102.8296" x="218.5" y="241.0339">aircraft_id: uuid</text><text fill="#000000" font-family="Verdana" font-size="14" lengthAdjust="spacing" textLength="218.0632" x="218.5" y="260.1018">scheduled_departure: timestamp</text><text fill="#000000" font-family="Verdana" font-size="14" lengthAdjust="spacing" textLength="193.5353" x="218.5" y="279.1697">scheduled_arrival: timestamp</text><text fill="#000000" font-family="Verdana" font-size="14" lengthAdjust="spacing" textLength="190.4553" x="218.5" y="298.2376">actual_departure: timestamp</text><text fill="#000000" font-family="Verdana" font-size="14" lengthAdjust="spacing" textLength="165.9274" x="218.5" y="317.3055">actual_arrival: timestamp</text><text fill="#000000" font-family="Verdana" font-size="14" lengthAdjust="spacing" textLength="49.1398" x="218.5" y="336.3734">id: uuid</text><line style="stroke:#000000;stroke-width:1;" x1="213.5" x2="441.5632" y1="344.4754" y2="344.4754"/><text fill="#000000" font-family="Verdana" font-size="14" lengthAdjust="spacing" textLength="121.5895" x="218.5" y="363.4414">status: varchar(20)</text><text fill="#000000" font-family="Verdana" font-size="14" lengthAdjust="spacing" textLength="118.2995" x="218.5" y="382.5093">plan: varchar(128)</text></g><!--class gates--><g class="entity" data-qualified-name="gates" data-source-line="38" id="ent0006"><rect fill="#FFFFFF" height="102.2717" rx="2.5" ry="2.5" style="stroke:#000000;stroke-width:1;" width="154.2534" x="477.5" y="241"/><ellipse cx="532.8168" cy="255.534" fill="#FFFFFF" rx="9" ry="9" style="stroke:#000000;stroke-width:1;"/><path d="M536.223,257.5027 C535.5043,258.1746 534.2074,259.3465 532.4574,259.3465 C530.2387,259.3465 529.2699,257.409 529.2699,255.4558 C529.2699,253.0652 530.7543,251.7996 532.3949,251.7996 C534.4105,251.7996 534.6293,253.3152 534.8012,254.409 L536.223,254.2215 C536.1293,253.6433 536.0512,253.0652 536.0512,252.0965 C536.0512,251.4246 536.098,250.8777 536.1293,250.4558 L534.723,250.4558 L534.6137,251.409 C534.0199,250.8777 533.3793,250.3308 532.1605,250.3308 C530.1137,250.3308 527.7074,252.159 527.7074,255.4715 C527.7074,258.409 529.473,260.7996 532.473,260.7996 C534.9105,260.7996 536.6137,259.1746 537.2074,258.5965 L536.223,257.5027 Z " fill="#000000"/><text fill="#000000" font-family="Verdana" font-size="14" lengthAdjust="spacing" textLength="36.1199" x="550.3168" y="260.9659">gates</text><line style="stroke:#000000;stroke-width:1;" x1="478.5" x2="630.7534" y1="270.0679" y2="270.0679"/><text fill="#000000" font-family="Verdana" font-size="14" lengthAdjust="spacing" textLength="100.5196" x="483.5" y="289.0339">airport_id: uuid</text><text fill="#000000" font-family="Verdana" font-size="14" lengthAdjust="spacing" textLength="49.1398" x="483.5" y="308.1018">id: uuid</text><line style="stroke:#000000;stroke-width:1;" x1="478.5" x2="630.7534" y1="316.2038" y2="316.2038"/><text fill="#000000" font-family="Verdana" font-size="14" lengthAdjust="spacing" textLength="142.2534" x="483.5" y="335.1697">number: varchar(128)</text></g><!--class subscriptions--><g class="entity" data-qualified-name="subscriptions" data-source-line="43" id="ent0007"><rect fill="#FFFFFF" height="102.2717" rx="2.5" ry="2.5" style="stroke:#000000;stroke-width:1;" width="115.8917" x="153.5" y="21.5"/><ellipse cx="166.5" cy="36.034" fill="#FFFFFF" rx="9" ry="9" style="stroke:#000000;stroke-width:1;"/><path d="M169.9063,38.0027 C169.1875,38.6746 167.8906,39.8465 166.1406,39.8465 C163.9219,39.8465 162.9531,37.909 162.9531,35.9558 C162.9531,33.5652 164.4375,32.2996 166.0781,32.2996 C168.0938,32.2996 168.3125,33.8152 168.4844,34.909 L169.9063,34.7215 C169.8125,34.1433 169.7344,33.5652 169.7344,32.5965 C169.7344,31.9246 169.7813,31.3777 169.8125,30.9558 L168.4063,30.9558 L168.2969,31.909 C167.7031,31.3777 167.0625,30.8308 165.8438,30.8308 C163.7969,30.8308 161.3906,32.659 161.3906,35.9715 C161.3906,38.909 163.1563,41.2996 166.1563,41.2996 C168.5938,41.2996 170.2969,39.6746 170.8906,39.0965 L169.9063,38.0027 Z " fill="#000000"/><text fill="#000000" font-family="Verdana" font-size="14" lengthAdjust="spacing" textLength="87.8917" x="178.5" y="41.4659">subscriptions</text><line style="stroke:#000000;stroke-width:1;" x1="154.5" x2="268.3917" y1="50.5679" y2="50.5679"/><text fill="#000000" font-family="Verdana" font-size="14" lengthAdjust="spacing" textLength="84.3917" x="159.5" y="69.5339">user_id: uuid</text><text fill="#000000" font-family="Verdana" font-size="14" lengthAdjust="spacing" textLength="89.7116" x="159.5" y="88.6018">flight_id: uuid</text><text fill="#000000" font-family="Verdana" font-size="14" lengthAdjust="spacing" textLength="49.1398" x="159.5" y="107.6697">id: uuid</text><line style="stroke:#000000;stroke-width:1;" x1="154.5" x2="268.3917" y1="115.7717" y2="115.7717"/></g><!--class users--><g class="entity" data-qualified-name="users" data-source-line="48" id="ent0008"><rect fill="#FFFFFF" height="121.3396" rx="2.5" ry="2.5" style="stroke:#000000;stroke-width:1;" width="165.3134" x="12" y="231.5"/><ellipse cx="73.0358" cy="246.034" fill="#FFFFFF" rx="9" ry="9" style="stroke:#000000;stroke-width:1;"/><path d="M76.442,248.0027 C75.7233,248.6746 74.4264,249.8465 72.6764,249.8465 C70.4576,249.8465 69.4889,247.909 69.4889,245.9558 C69.4889,243.5652 70.9733,242.2996 72.6139,242.2996 C74.6295,242.2996 74.8483,243.8152 75.0201,244.909 L76.442,244.7215 C76.3483,244.1433 76.2701,243.5652 76.2701,242.5965 C76.2701,241.9246 76.317,241.3777 76.3483,240.9558 L74.942,240.9558 L74.8326,241.909 C74.2389,241.3777 73.5983,240.8308 72.3795,240.8308 C70.3326,240.8308 67.9264,242.659 67.9264,245.9715 C67.9264,248.909 69.692,251.2996 72.692,251.2996 C75.1295,251.2996 76.8326,249.6746 77.4264,249.0965 L76.442,248.0027 Z " fill="#000000"/><text fill="#000000" font-family="Verdana" font-size="14" lengthAdjust="spacing" textLength="35.7419" x="90.5358" y="251.4659">users</text><line style="stroke:#000000;stroke-width:1;" x1="13" x2="176.3134" y1="260.5679" y2="260.5679"/><text fill="#000000" font-family="Verdana" font-size="14" lengthAdjust="spacing" textLength="49.1398" x="18" y="279.5339">id: uuid</text><line style="stroke:#000000;stroke-width:1;" x1="13" x2="176.3134" y1="287.6358" y2="287.6358"/><text fill="#000000" font-family="Verdana" font-size="14" lengthAdjust="spacing" textLength="125.6355" x="18" y="306.6018">email: varchar(256)</text><text fill="#000000" font-family="Verdana" font-size="14" lengthAdjust="spacing" textLength="153.3134" x="18" y="325.6697">password: varchar(128)</text><text fill="#000000" font-family="Verdana" font-size="14" lengthAdjust="spacing" textLength="107.3236" x="18" y="344.7376">role: varchar(20)</text></g><!--class visits--><g class="entity" data-qualified-name="visits" data-source-line="54" id="ent0009"><rect fill="#FFFFFF" height="121.3396" rx="2.5" ry="2.5" style="stroke:#000000;stroke-width:1;" width="169.1214" x="470" y="12"/><ellipse cx="534.4098" cy="26.534" fill="#FFFFFF" rx="9" ry="9" style="stroke:#000000;stroke-width:1;"/><path d="M537.816,28.5027 C537.0973,29.1746 535.8004,30.3465 534.0504,30.3465 C531.8316,30.3465 530.8629,28.409 530.8629,26.4558 C530.8629,24.0652 532.3473,22.7996 533.9879,22.7996 C536.0035,22.7996 536.2223,24.3152 536.3941,25.409 L537.816,25.2215 C537.7223,24.6433 537.6441,24.0652 537.6441,23.0965 C537.6441,22.4246 537.691,21.8777 537.7223,21.4558 L536.316,21.4558 L536.2066,22.409 C535.6129,21.8777 534.9723,21.3308 533.7535,21.3308 C531.7066,21.3308 529.3004,23.159 529.3004,26.4715 C529.3004,29.409 531.066,31.7996 534.066,31.7996 C536.5035,31.7996 538.2066,30.1746 538.8004,29.5965 L537.816,28.5027 Z " fill="#000000"/><text fill="#000000" font-family="Verdana" font-size="14" lengthAdjust="spacing" textLength="32.8019" x="551.9098" y="31.9659">visits</text><line style="stroke:#000000;stroke-width:1;" x1="471" x2="638.1214" y1="41.0679" y2="41.0679"/><text fill="#000000" font-family="Verdana" font-size="14" lengthAdjust="spacing" textLength="89.7116" x="476" y="60.0339">flight_id: uuid</text><text fill="#000000" font-family="Verdana" font-size="14" lengthAdjust="spacing" textLength="157.1214" x="476" y="79.1018">departure_gate_id: uuid</text><text fill="#000000" font-family="Verdana" font-size="14" lengthAdjust="spacing" textLength="132.5935" x="476" y="98.1697">arrival_gate_id: uuid</text><text fill="#000000" font-family="Verdana" font-size="14" lengthAdjust="spacing" textLength="49.1398" x="476" y="117.2376">id: uuid</text><line style="stroke:#000000;stroke-width:1;" x1="471" x2="638.1214" y1="125.3396" y2="125.3396"/></g><!--link aircraft to aircraft_models--><g class="link" data-entity-1="ent0002" data-entity-2="ent0003" data-link-type="extension" data-source-line="61" id="lnk10"><path codeLine="61" d="M326.5,591.05 C326.5,610.2 326.5,613.1 326.5,632.75" fill="none" id="aircraft-to-aircraft_models" style="stroke:#595959;stroke-width:1;"/><polygon fill="none" points="326.5,650.75,332.5,632.75,320.5,632.75,326.5,650.75" style="stroke:#595959;stroke-width:1;"/><text fill="#000000" font-family="Verdana" font-size="13" lengthAdjust="spacing" textLength="120.5101" x="205.5" y="616.797">aircraft_model_id:id</text></g><!--link flights to aircraft--><g class="link" data-entity-1="ent0005" data-entity-2="ent0002" data-link-type="extension" data-source-line="62" id="lnk11"><path codeLine="62" d="M327,391.11 C327,411.18 327,413.88 327,432.71" fill="none" id="flights-to-aircraft" style="stroke:#595959;stroke-width:1;"/><polygon fill="none" points="327,450.71,333,432.71,321,432.71,327,450.71" style="stroke:#595959;stroke-width:1;"/><text fill="#000000" font-family="Verdana" font-size="13" lengthAdjust="spacing" textLength="76.0371" x="250" y="416.807">aircraft_id:id</text></g><!--link gates to airports--><g class="link" data-entity-1="ent0006" data-entity-2="ent0004" data-link-type="extension" data-source-line="63" id="lnk12"><path codeLine="63" d="M554.5,343.11 C554.5,374.88 554.5,398.15 554.5,432.95" fill="none" id="gates-to-airports" style="stroke:#595959;stroke-width:1;"/><polygon fill="none" points="554.5,450.95,560.5,432.95,548.5,432.95,554.5,450.95" style="stroke:#595959;stroke-width:1;"/><text fill="#000000" font-family="Verdana" font-size="13" lengthAdjust="spacing" textLength="73.8921" x="480.5" y="392.927">airport_id:id</text></g><!--link subscriptions to flights--><g class="link" data-entity-1="ent0007" data-entity-2="ent0005" data-link-type="extension" data-source-line="64" id="lnk13"><path codeLine="64" d="M241,123.69 C241,144.33 241,150.9 241,174.78" fill="none" id="subscriptions-to-flights" style="stroke:#595959;stroke-width:1;"/><polygon fill="none" points="241,192.78,247,174.78,235,174.78,241,192.78" style="stroke:#595959;stroke-width:1;"/><text fill="#000000" font-family="Verdana" font-size="13" lengthAdjust="spacing" textLength="63.8561" x="177" y="154.127">flight_id:id</text></g><!--link subscriptions to users--><g class="link" data-entity-1="ent0007" data-entity-2="ent0008" data-link-type="extension" data-source-line="65" id="lnk14"><path codeLine="65" d="M165.25,123.69 C165.25,155.86 165.25,179.54 165.25,213.37" fill="none" id="subscriptions-to-users" style="stroke:#595959;stroke-width:1;"/><polygon fill="none" points="165.25,231.37,171.25,213.37,159.25,213.37,165.25,231.37" style="stroke:#595959;stroke-width:1;"/><text fill="#000000" font-family="Verdana" font-size="13" lengthAdjust="spacing" textLength="58.9161" x="106.25" y="173.427">user_id:id</text></g><!--link visits to flights--><g class="link" data-entity-1="ent0009" data-entity-2="ent0005" data-link-type="extension" data-source-line="66" id="lnk15"><path codeLine="66" d="M469.74,129 C415.79,129 356,129 356,129 C356,129 356,140.82 356,174.95" fill="none" id="visits-to-flights" style="stroke:#595959;stroke-width:1;"/><polygon fill="none" points="356,192.95,362,174.95,350,174.95,356,192.95" style="stroke:#595959;stroke-width:1;"/><text fill="#000000" font-family="Verdana" font-size="13" lengthAdjust="spacing" textLength="63.8561" x="316.89" y="124.897">flight_id:id</text></g><!--link visits to gates--><g class="link" data-entity-1="ent0009" data-entity-2="ent0006" data-link-type="extension" data-source-line="67" id="lnk16"><path codeLine="67" d="M528.83,133.06 C528.83,166.94 528.83,190.71 528.83,222.92" fill="none" id="visits-to-gates" style="stroke:#595959;stroke-width:1;"/><polygon fill="none" points="528.83,240.92,534.83,222.92,522.83,222.92,528.83,240.92" style="stroke:#595959;stroke-width:1;"/><text fill="#000000" font-family="Verdana" font-size="13" lengthAdjust="spacing" textLength="126.4511" x="401.83" y="182.887">departure_gate_id:id</text></g><!--link visits to gates--><g class="link" data-entity-1="ent0009" data-entity-2="ent0006" data-link-type="extension" data-source-line="68" id="lnk17"><path codeLine="68" d="M580.17,133.06 C580.17,166.94 580.17,190.71 580.17,222.92" fill="none" id="visits-to-gates-1" style="stroke:#595959;stroke-width:1;"/><polygon fill="none" points="580.17,240.92,586.17,222.92,574.17,222.92,580.17,240.92" style="stroke:#595959;stroke-width:1;"/><text fill="#000000" font-family="Verdana" font-size="13" lengthAdjust="spacing" textLength="103.6751" x="476.17" y="201.887">arrival_gate_id:id</text></g><?plantuml-src fPHlZzCm3CRVzrE4umr8d0IJXg1V1N6LrtYjHT9KZhFZXFZk9DS_QvkDJRhjpMOdFzkFd_QTj6XHzGQeAyJrIfmwE15dbIR6MiXrXVz5NGyCLXdgK5vwL8wbTKLH6_1U0N7DS1Jrfr1g_bTPfz5Kf4iL0kcKOcp82qEYLbsm1-HIdO3h5lZ3byyVqncFJ62kPIqPX0PBHPrWWvnYSuM_ctw63lpGbeKk7A6Mm4liViIcWtaqmbQLBFokm0X9q9WbV8-eRpRMH-N6ZWW4gjebr6RAMC4iexjlh-6QvEL2r8LE-48YAtyqrBHJzLcavO9ytQ8E1dMbCMuyYLN6RYnw0TklJm0pdS1iyadXkBvhryVqvRlnXmH_7cGtg17DsTqnNGE2vzcIpglHCaDTu_Xmy3LJdqmwya8qvGesABaAPPnqQRoF5cXXhzt-wp1OFFRiMETDiLlkVzGXgt0YJzCwBtGqxw1AqgnIe_vvOb6Zc1_hwVFuu_t-U_f-UdrV_7nyKjcpLgg7_0L0-g6Op7SNRJgpf8sSOStg9cTuq5QSoHC9izxo5SosvuWvwtmtPJ22Mb8cGoN6kCN_3tIpaxieM-qY9JV9MsXRNqNMFm00?></g></svg>